<?xml version="1.0" encoding="UTF-8"?>
<svg width="176px" height="67px" viewBox="0 0 176 67" version="1.1" xmlns="http://www.w3.org/2000/svg" xmlns:xlink="http://www.w3.org/1999/xlink">
    <title>Signature 2</title>
    <g id="Page-1" stroke="none" stroke-width="1" fill="none" fill-rule="evenodd">
        <g id="Extra-Large" transform="translate(-194.000000, -15.000000)" stroke="#000000" stroke-width="2">
            <g id="Signature-2" transform="translate(195.135372, 16.054245)">
                <path d="M0,44.1308166 C10.4444782,29.1402374 22.3306922,17.36358 42.9581654,4.07437161 C45.0423286,2.73165363 50.1619497,-1.21509099 50.3298884,0.369009596 C51.103011,7.6615755 46.1346241,14.8738562 44.8750197,22.155314 C44.4637117,24.5329825 42.1351615,27.2995318 45.3245779,29.3034561 C47.029509,30.3746718 50.0723419,27.5919886 51.8573548,26.5423458 C64.6543694,19.0173047 76.3241002,11.1864712 88.9918934,3.62572162 C89.2133705,3.49353345 90.1056421,3.51820889 90.1695124,3.67580348 C93.4518137,11.7746018 75.9007683,21.763952 77.7168363,31.2615177 C77.822996,31.8167054 77.9391557,32.5548716 79.1351365,32.8304015 C80.0211138,33.0345128 81.230421,32.5455434 81.7551239,32.1918578 C84.3716705,30.4281262 86.4290419,28.5316448 88.3403349,26.6254678 C95.1110224,19.8729036 102.257052,13.1643324 107.78738,6.22928273 C109.113208,4.56669037 103.056504,9.15823083 101.03799,10.7025666 C99.8855691,11.5842673 98.8570535,12.5109666 98.3062579,13.4831532 C97.6034993,14.7235633 97.2547718,16.0072621 97.3117286,17.2796363 C97.3359051,17.8197218 98.0571609,19.3241774 98.54522,18.8213925 C100.669751,16.6327593 98.3165283,13.5879519 102.485516,11.949744 C104.74284,11.0627264 106.788555,13.8164 109.197085,14.6357315 C116.528725,17.1298027 118.919481,12.065041 123.47464,9.13229162 C123.817033,8.91184901 123.657276,8.44870245 123.043133,8.3709778 C116.106691,7.49311597 105.600899,11.5788877 130.938338,7.51297817 C137.993352,6.38085708 144.017181,4.17830903 151.406559,3.47756279 C155.242744,3.11377143 140.827411,7.22746496 146.140797,8.06770432 C147.941483,8.35245813 149.464031,7.22916585 150.761018,6.64906609 C153.703053,5.3331904 154.694213,3.08704501 158.761091,2.42306141 C162.348802,1.83730959 154.103744,4.95057339 152.471574,6.36979017 C151.083325,7.57691079 149.112255,8.91296275 149.800012,10.214964 C150.121842,10.8242241 152.929252,10.0017885 154.206198,9.65362987 C160.545006,7.92535741 165.73379,5.50745994 172.458433,4.03715801 C175.774703,3.31207582 166.946199,6.14027385 164.688726,7.36168922 C162.992661,8.27935286 161.554276,9.30468466 160.702873,10.3975542 C160.494366,10.6651954 161.171416,10.9735883 161.758432,11.1230455 C164.734773,11.8808365 168.125648,12.340484 171.159614,13.0598919 C171.929936,13.2425492 172.77099,13.4733135 173.09194,13.8104242 C173.495173,14.2339605 173.663968,14.7641452 173.170162,15.171677 C171.686564,16.396071 169.684109,17.5302085 167.379199,18.5250748 C161.769683,20.9463054 155.706348,23.1947093 149.526667,25.3768992 C128.504788,32.8002162 106.756514,39.8830471 85.7951306,47.3343166 C73.7576764,51.6133432 62.496088,56.2393465 50.5507994,60.5604488 C47.338931,61.7223137 44.0068858,62.8500419 40.3519313,63.7729914 C39.5755755,63.9690369 38.1033701,64.1401192 37.6098841,63.8282901 C32.9208011,60.8653033 36.0152925,53.1150732 37.8763527,50.0526487 C49.1387009,31.5201515 121.56173,25.1495425 155.627077,19.6839134" id="Signature"></path>
            </g>
        </g>
    </g>
</svg>