<?xml version="1.0" encoding="UTF-8"?>
<svg width="191px" height="55px" viewBox="0 0 191 55" version="1.1" xmlns="http://www.w3.org/2000/svg" xmlns:xlink="http://www.w3.org/1999/xlink">
    <title>Sri_Sivasubramaniya_Nadar_College_of_Engineering</title>
    <g id="Page-1" stroke="none" stroke-width="1" fill="none" fill-rule="evenodd" opacity="0.440917969">
        <g id="Education" transform="translate(-1712.000000, -393.000000)" fill="#0D4BA0">
            <g id="Sri_Sivasubramaniya_Nadar_College_of_Engineering" transform="translate(1712.000000, 393.000000)">
                <path d="M9.96299886,16.6286608 C9.96299886,22.225955 14.1636544,26.0003652 24.0119666,29.2524153 L37.7969318,33.7688355 C41.6867981,35.0378807 45.182332,36.4790461 45.182332,40.0841412 C45.182332,43.7832829 40.6875975,46.364228 34.2479303,46.364228 C27.7948954,46.364228 23.6243174,43.5620746 23.6243174,39.2223717 L23.6812666,37.7624282 L23.4775505,37.7624282 L0.168427671,37.7624282 L0.147039697,37.8905248 C0,38.8512498 0,39.7953783 0,40.6267599 C0,45.6658519 2.55648457,49.2331569 7.81649318,51.5314167 C13.1567051,53.8672328 21.4042912,55 33.0237631,55 C55.7146526,55 69.2590072,48.2607443 69.2590072,36.9697716 C69.2590072,31.6668504 65.108478,27.6779328 56.9143606,25.1065715 L42.6715669,20.6985348 C37.0439609,18.9512309 34.1867141,16.6813331 34.1867141,13.9451214 C34.1867141,10.7686905 37.9696429,8.63285786 43.5872251,8.63285786 C49.4587834,8.63285786 52.6869711,10.8227575 52.6869711,14.8069845 L52.6401856,15.7300362 L52.8505885,15.7300362 L75.7820851,15.7300362 L75.7928082,15.5999916 C75.8997364,14.6793553 76,13.7821566 76,12.9745711 C76,2.2511274 59.6217925,0 45.8902938,0 C22.7181865,0 9.96249872,5.90566904 9.96249872,16.6313879" id="path354"></path>
                <path d="M94.4436841,0 C84.9308852,0 77.144295,0.967673617 71.2534824,2.82784842 C75.9335754,5.27197307 78.388929,8.72163804 78.388929,12.9741318 C78.388929,13.8382018 78.2871808,14.7683749 78.1650984,15.7219381 L77.9955295,17.2267112 L58,17.2267112 C58.2984409,22.5034293 62.6054828,26.1200896 72.2437637,29.254222 L86.2297822,33.7704894 C90.1773391,35.0394916 93.7281052,36.4806082 93.7281052,40.0855812 C93.7281052,43.7845976 89.1667105,46.3654554 82.638318,46.3654554 C76.0794046,46.3654554 71.8469717,43.5633968 71.8469717,39.2238408 L71.9080183,37.7639468 L71.6977536,37.7639468 L71.518146,37.7639468 C71.2061402,43.455017 67.553633,48.1737855 60.8828037,51.4420877 C60.1197455,51.8164694 59.3092067,52.1672429 58.4681458,52.5016543 C63.8366892,54.1781522 71.3723167,55 81.3904299,55 C104.417848,55 118.16307,48.2610504 118.16307,36.9703821 C118.16307,31.6676404 113.947603,27.6789358 105.631957,25.1076616 L91.1813224,20.6996962 C85.4736412,18.9524514 82.5672374,16.6827084 82.5672374,13.9465115 C82.5672374,10.7701725 86.4096608,8.63441995 92.1139484,8.63441995 C98.0624152,8.63441995 101.341872,10.8242377 101.341872,14.8083453 L101.294393,15.7313658 L101.504659,15.7313658 L124.77966,15.7313658 L124.793263,15.6014035 C124.901848,14.6807984 125,13.7835444 125,12.975994 C125,2.25290556 108.385664,0.00185437793 94.4437338,0.00185437793" id="path358"></path>
                <path d="M149.616095,52 L175.961809,51.8828462 L188.385238,22.215448 L189.956741,18.1761035 C190.676455,16.3956991 191,14.6883739 191,12.642272 C191,4.84489604 183.126005,0 170.441752,0 C160.203904,0 148.549714,3.16505309 140.22011,10.4360549 C140.22011,10.1339541 143.944169,1.25634753 143.944169,1.25634753 L118.040833,1.25634753 L117.849352,1.95667273 L117.83611,1.99877842 C123.323154,4.42250627 126.205337,8.06139229 126.205337,12.6408029 C126.205337,13.4875968 126.106309,14.3938991 125.997482,15.3231399 L125.809157,16.9549627 L112.167489,16.9549627 C111.33882,18.9436236 110.318667,21.4131679 109.199469,24.0953611 C115.980696,26.8760029 119.546276,30.9359458 119.546276,35.9595487 C119.546276,41.8962999 115.917952,46.8120637 109.054204,50.1718102 C107.806248,50.7827214 106.452646,51.3412277 105,51.8424823 L124.013159,51.8424823 L135.069784,25.2396363 C137.945359,18.197535 142.805118,10.1187628 154.858781,10.1187628 C159.708637,10.1187628 163.502039,12.3753325 163.502039,15.2568007 C163.502039,16.7169444 163.284143,18.9689173 162.234275,21.3856781 L162.293691,21.35993 L162.036173,21.8609574 L152.082258,45.811372 L150.609794,49.3359062 L150.583425,49.3616543 L150.581122,49.4108786 L150.336811,49.9943756" id="path362"></path>
            </g>
        </g>
    </g>
</svg>