<?xml version="1.0" encoding="UTF-8"?>
<svg width="114px" height="114px" viewBox="0 0 114 114" version="1.1" xmlns="http://www.w3.org/2000/svg" xmlns:xlink="http://www.w3.org/1999/xlink">
    <title>Group 9</title>
    <defs>
        <filter x="-14.4%" y="-14.4%" width="128.7%" height="128.7%" filterUnits="objectBoundingBox" id="filter-1">
            <feOffset dx="3" dy="-1" in="SourceAlpha" result="shadowOffsetOuter1"></feOffset>
            <feGaussianBlur stdDeviation="2" in="shadowOffsetOuter1" result="shadowBlurOuter1"></feGaussianBlur>
            <feColorMatrix values="0 0 0 0 0   0 0 0 0 0   0 0 0 0 0  0 0 0 0.5 0" type="matrix" in="shadowBlurOuter1" result="shadowMatrixOuter1"></feColorMatrix>
            <feMerge>
                <feMergeNode in="shadowMatrixOuter1"></feMergeNode>
                <feMergeNode in="SourceGraphic"></feMergeNode>
            </feMerge>
        </filter>
    </defs>
    <g id="Page-1" stroke="none" stroke-width="1" fill="none" fill-rule="evenodd">
        <g id="Skills-2" transform="translate(-1533.000000, -333.000000)">
            <g id="Group-9" filter="url(#filter-1)" transform="translate(1543.000000, 343.000000)">
                <circle id="Oval-Copy-4" cx="47" cy="47" r="47"></circle>
                <g id="Amazon_Web_Services_Logo" transform="translate(7.000000, 30.000000)">
                    <path d="M22.1366933,16.6723404 C22.1366933,17.6170213 22.2425671,18.3829787 22.4278463,18.9446809 C22.6395939,19.506383 22.9042785,20.1191489 23.2748368,20.7829787 C23.4071791,20.987234 23.460116,21.1914894 23.460116,21.3702128 C23.460116,21.6255319 23.3013053,21.8808511 22.9572154,22.1361702 L21.2897027,23.2085106 C21.0514866,23.3617021 20.8132705,23.4382979 20.6015228,23.4382979 C20.3368383,23.4382979 20.0721537,23.3106383 19.8074692,23.0808511 C19.4369108,22.6978723 19.1192893,22.2893617 18.8546048,21.8808511 C18.5899202,21.4468085 18.3252357,20.9617021 18.0340827,20.3744681 C15.9695431,22.7234043 13.3756345,23.8978723 10.2523568,23.8978723 C8.02900653,23.8978723 6.25562001,23.2851064 4.9586657,22.0595745 C3.66171139,20.8340426 3,19.2 3,17.1574468 C3,14.987234 3.79405366,13.2255319 5.40862944,11.8978723 C7.02320522,10.5702128 9.16715011,9.90638298 11.893401,9.90638298 C12.7933285,9.90638298 13.7197244,9.98297872 14.6990573,10.1106383 C15.6783901,10.2382979 16.6841914,10.4425532 17.7429297,10.6723404 L17.7429297,8.80851064 C17.7429297,6.86808511 17.3194344,5.51489362 16.4989123,4.72340426 C15.6519217,3.93191489 14.2226251,3.54893617 12.184554,3.54893617 C11.2581581,3.54893617 10.3052937,3.65106383 9.32596084,3.88085106 C8.34662799,4.1106383 7.3937636,4.39148936 6.46736766,4.74893617 C6.04387237,4.92765957 5.72625091,5.02978723 5.54097172,5.08085106 C5.35569253,5.13191489 5.22335025,5.15744681 5.11747643,5.15744681 C4.74691806,5.15744681 4.56163887,4.90212766 4.56163887,4.36595745 L4.56163887,3.11489362 C4.56163887,2.70638298 4.61457578,2.4 4.74691806,2.2212766 C4.87926033,2.04255319 5.11747643,1.86382979 5.48803481,1.68510638 C6.41443075,1.22553191 7.52610587,0.842553191 8.82306019,0.536170213 C10.1200145,0.204255319 11.4963742,0.0510638298 12.9521392,0.0510638298 C16.1018854,0.0510638298 18.404641,0.740425532 19.8868745,2.11914894 C21.3426396,3.49787234 22.0837563,5.59148936 22.0837563,8.4 L22.0837563,16.6723404 L22.1366933,16.6723404 Z M11.3905004,20.5531915 C12.2639594,20.5531915 13.1638869,20.4 14.1167513,20.093617 C15.0696157,19.787234 15.9166062,19.2255319 16.6312545,18.4595745 C17.0547498,17.9744681 17.3723713,17.4382979 17.531182,16.8255319 C17.6899927,16.212766 17.7958666,15.4723404 17.7958666,14.6042553 L17.7958666,13.5319149 C17.0282814,13.3531915 16.2077592,13.2 15.3607687,13.0978723 C14.5137781,12.9957447 13.693256,12.9446809 12.8727339,12.9446809 C11.0993474,12.9446809 9.80239304,13.2765957 8.92893401,13.9659574 C8.05547498,14.6553191 7.6319797,15.6255319 7.6319797,16.9021277 C7.6319797,18.1021277 7.94960116,18.9957447 8.61131255,19.6085106 C9.24655547,20.2468085 10.1729514,20.5531915 11.3905004,20.5531915 Z M32.6446701,23.3106383 C32.1682379,23.3106383 31.8506164,23.2340426 31.6388687,23.0553191 C31.4271211,22.9021277 31.2418419,22.5446809 31.0830312,22.0595745 L24.8629442,2.32340426 C24.7041334,1.81276596 24.6247281,1.48085106 24.6247281,1.30212766 C24.6247281,0.893617021 24.8364757,0.663829787 25.259971,0.663829787 L27.8538796,0.663829787 C28.3567803,0.663829787 28.7008702,0.740425532 28.8861494,0.919148936 C29.097897,1.07234043 29.2567078,1.42978723 29.4155185,1.91489362 L33.862219,18.8170213 L37.991298,1.91489362 C38.1236403,1.40425532 38.2824511,1.07234043 38.4941987,0.919148936 C38.7059463,0.765957447 39.0765047,0.663829787 39.5529369,0.663829787 L41.6704133,0.663829787 C42.173314,0.663829787 42.5174039,0.740425532 42.7291516,0.919148936 C42.9408992,1.07234043 43.1261784,1.42978723 43.2320522,1.91489362 L47.4140682,19.0212766 L51.9931109,1.91489362 C52.1519217,1.40425532 52.3372009,1.07234043 52.5224801,0.919148936 C52.7342277,0.765957447 53.0783176,0.663829787 53.5547498,0.663829787 L56.0163162,0.663829787 C56.4398115,0.663829787 56.6780276,0.868085106 56.6780276,1.30212766 C56.6780276,1.42978723 56.6515591,1.55744681 56.6250906,1.7106383 C56.5986222,1.86382979 56.5456853,2.06808511 56.4398115,2.34893617 L50.0609137,22.0851064 C49.902103,22.5957447 49.7168238,22.9276596 49.5050761,23.0808511 C49.2933285,23.2340426 48.9492386,23.3361702 48.4992748,23.3361702 L46.2229877,23.3361702 C45.720087,23.3361702 45.3759971,23.2595745 45.1642495,23.0808511 C44.9525018,22.9021277 44.7672226,22.5702128 44.6613488,22.0595745 L40.5587382,5.59148936 L36.4825961,22.0340426 C36.3502538,22.5446809 36.1914431,22.8765957 35.9796954,23.0553191 C35.7679478,23.2340426 35.3973894,23.3106383 34.9209572,23.3106383 L32.6446701,23.3106383 Z M66.6566352,24 C65.2802756,24 63.9039159,23.8468085 62.5804931,23.5404255 C61.2570703,23.2340426 60.2248006,22.9021277 59.5366207,22.5191489 C59.1131255,22.2893617 58.8219724,22.0340426 58.7160986,21.8042553 C58.6102248,21.5744681 58.5572879,21.3191489 58.5572879,21.0893617 L58.5572879,19.787234 C58.5572879,19.2510638 58.7690355,18.9957447 59.1660624,18.9957447 C59.3248731,18.9957447 59.4836838,19.0212766 59.6424946,19.0723404 C59.8013053,19.1234043 60.0395214,19.2255319 60.3042059,19.3276596 C61.2041334,19.7106383 62.1834663,20.0170213 63.215736,20.2212766 C64.2744743,20.4255319 65.306744,20.5276596 66.3654822,20.5276596 C68.0329949,20.5276596 69.3299492,20.2468085 70.2298767,19.6851064 C71.1298042,19.1234043 71.6062364,18.306383 71.6062364,17.2595745 C71.6062364,16.5446809 71.3680203,15.9574468 70.8915881,15.4723404 C70.4151559,14.987234 69.5152284,14.5531915 68.2182741,14.1446809 L64.3803481,12.9957447 C62.4481508,12.4085106 61.0188542,11.5404255 60.1453952,10.3914894 C59.2719362,9.26808511 58.8219724,8.01702128 58.8219724,6.6893617 C58.8219724,5.61702128 59.0601885,4.67234043 59.5366207,3.85531915 C60.0130529,3.03829787 60.6482959,2.32340426 61.4423495,1.76170213 C62.2364032,1.17446809 63.1363307,0.740425532 64.1950689,0.434042553 C65.2538071,0.127659574 66.3654822,0 67.5300943,0 C68.1124003,0 68.7211748,0.0255319149 69.3034808,0.10212766 C69.9122553,0.178723404 70.4680928,0.280851064 71.0239304,0.382978723 C71.5532995,0.510638298 72.0562001,0.638297872 72.5326323,0.791489362 C73.0090645,0.944680851 73.3796229,1.09787234 73.6443075,1.25106383 C74.0148658,1.45531915 74.2795504,1.65957447 74.4383611,1.8893617 C74.5971719,2.09361702 74.6765772,2.37446809 74.6765772,2.73191489 L74.6765772,3.93191489 C74.6765772,4.46808511 74.4648296,4.74893617 74.0678028,4.74893617 C73.8560551,4.74893617 73.5119652,4.64680851 73.0620015,4.44255319 C71.5532995,3.7787234 69.8593183,3.44680851 67.980058,3.44680851 C66.4713561,3.44680851 65.2802756,3.67659574 64.4597534,4.16170213 C63.6392313,4.64680851 63.215736,5.38723404 63.215736,6.43404255 C63.215736,7.14893617 63.4804206,7.76170213 64.0097897,8.24680851 C64.5391588,8.73191489 65.5184917,9.21702128 66.9213198,9.65106383 L70.6798405,10.8 C72.5855693,11.387234 73.9619289,12.2042553 74.7824511,13.2510638 C75.6029732,14.2978723 76,15.4978723 76,16.8255319 C76,17.9234043 75.7617839,18.9191489 75.3118202,19.787234 C74.835388,20.6553191 74.200145,21.4212766 73.3796229,22.0340426 C72.5591008,22.6723404 71.5797679,23.1319149 70.4416244,23.4638298 C69.2505439,23.8212766 68.0065265,24 66.6566352,24 Z" id="Shape" fill="#252F3E" fill-rule="nonzero"></path>
                    <g id="Group" transform="translate(0.000000, 29.000000)" fill="#FF9900">
                        <path d="M72.3267774,8.56101832 C63.573022,15.3800305 50.8548,19 39.9192575,19 C24.5935339,19 10.7844183,13.0228411 0.354411897,3.08897148 C-0.470410036,2.30324167 0.27459042,1.23689408 1.25905531,1.85425321 C12.5404908,8.75745077 26.456035,12.9386558 40.8505081,12.9386558 C50.5621212,12.9386558 61.231592,10.8059606 71.0496337,6.42832314 C72.5130275,5.72677867 73.763564,7.43854717 72.3267774,8.56101832 Z" id="Path"></path>
                        <path d="M75.9719582,4.18338085 C74.8544575,2.6680448 68.5751679,3.4537746 65.7282019,3.81857772 C64.8767728,3.93082484 64.743737,3.14509503 65.5153446,2.55579768 C70.5174906,-1.14835711 78.7391027,-0.0820095171 79.6969605,1.15270875 C80.6548182,2.41548879 79.4308889,11.0865784 74.7480289,15.2397217 C74.0296356,15.8851426 73.3378494,15.5484012 73.6571353,14.7065479 C74.7214217,11.9284318 77.0894589,5.67065512 75.9719582,4.18338085 Z" id="Path"></path>
                    </g>
                </g>
            </g>
        </g>
    </g>
</svg>