<?xml version="1.0" encoding="UTF-8"?>
<svg width="118px" height="118px" viewBox="0 0 118 118" version="1.1" xmlns="http://www.w3.org/2000/svg" xmlns:xlink="http://www.w3.org/1999/xlink">
    <title>Group 5</title>
    <defs>
        <filter x="-17.0%" y="-17.0%" width="134.0%" height="134.0%" filterUnits="objectBoundingBox" id="filter-1">
            <feOffset dx="4" dy="-1" in="SourceAlpha" result="shadowOffsetOuter1"></feOffset>
            <feGaussianBlur stdDeviation="2" in="shadowOffsetOuter1" result="shadowBlurOuter1"></feGaussianBlur>
            <feColorMatrix values="0 0 0 0 0   0 0 0 0 0   0 0 0 0 0  0 0 0 0.5 0" type="matrix" in="shadowBlurOuter1" result="shadowMatrixOuter1"></feColorMatrix>
            <feMerge>
                <feMergeNode in="shadowMatrixOuter1"></feMergeNode>
                <feMergeNode in="SourceGraphic"></feMergeNode>
            </feMerge>
        </filter>
    </defs>
    <g id="Page-1" stroke="none" stroke-width="1" fill="none" fill-rule="evenodd">
        <g id="Skills-2" transform="translate(-1597.000000, -528.000000)">
            <g id="Group-5" filter="url(#filter-1)" transform="translate(1609.000000, 540.000000)">
                <circle id="Oval-Copy-14" cx="47" cy="47" r="47"></circle>
                <g id="cron" transform="translate(6.000000, 8.000000)" fill-rule="nonzero">
                    <polygon id="Path" points="0 0 82 0 82 77 0 77"></polygon>
                    <path d="M18.5541116,41.602056 L21.1059244,42.1836166 C20.5688372,44.0748548 19.6027722,45.5167052 18.2081617,46.5099454 C16.8135512,47.5031855 15.1088832,47.9996113 13.0941575,47.9996113 C11.0085122,47.9996113 9.31206045,47.6178649 8.00566721,46.8539835 C6.69927396,46.0901022 5.70423561,44.9837376 5.02271434,43.5352785 C4.34119307,42.0872082 4,40.5314558 4,38.8695765 C4,37.0568646 4.38486924,35.4758439 5.1541753,34.1261257 C5.92348135,32.7764076 7.01884516,31.7516792 8.43940187,31.051163 C9.85995858,30.3506468 11.4232196,30 13.1300498,30 C15.0647746,30 16.6916039,30.4431678 18.0114027,31.328726 C19.3307691,32.2150617 20.2501309,33.4609852 20.7690557,35.0668855 L18.2453513,35.6017969 C17.7964813,34.3348811 17.1456631,33.4120035 16.2924642,32.8335529 C15.4392653,32.255491 14.3659558,31.9662657 13.073833,31.9662657 C11.5875458,31.9662657 10.3451533,32.287368 9.34665544,32.9291839 C8.34859003,33.570611 7.64717664,34.432067 7.24284771,35.5131633 C6.83864363,36.5906497 6.63368868,37.7204217 6.63613811,38.8575254 C6.63613811,40.3390277 6.8757084,41.6319893 7.3561463,42.7367989 C7.8365842,43.8416085 8.58297107,44.6676889 9.59617179,45.2134851 C10.5874252,45.754619 11.7260235,46.0383938 12.8857227,46.0333456 C14.3214148,46.0333456 15.5369962,45.6613178 16.5324669,44.9164849 C17.5279377,44.1724294 18.2016751,43.0676198 18.5541116,41.602056 L18.5541116,41.602056 Z M26.8504222,32.2185604 L32.9702756,32.2185604 C34.4038054,32.2185604 35.4533309,32.4844611 36.1175547,33.0162624 C36.7817785,33.5480638 37.1138903,34.2260329 37.1138903,35.0513358 C37.1138903,35.6150141 36.9422127,36.1370969 36.5992899,36.6168067 C36.2559346,37.0969052 35.7543073,37.445997 35.0948403,37.6640822 C34.4349409,37.8825562 33.5199035,37.9914044 32.3510253,37.9914044 L26.8504222,37.9914044 L26.8504222,32.2185604 L26.8504222,32.2185604 Z M26.8504222,47.6967799 L26.8504222,39.9825497 L29.8182398,39.9825497 C30.4772743,39.9825497 30.9525229,40.0105393 31.242256,40.0645746 C31.6383686,40.150487 32.0271298,40.3028745 32.4098368,40.5217373 C32.7921114,40.7402112 33.2254137,41.1262337 33.7088786,41.6801935 C34.192776,42.2337646 34.8081344,43.0330216 35.5558186,44.0771872 L38.1145504,47.6967799 L41.3145868,47.6967799 L37.9662244,42.9618815 C37.3011357,42.0355053 36.5945331,41.2634603 35.8468489,40.6469127 C35.4952773,40.3631298 34.9806769,40.0735158 34.30348,39.7811805 C36.1586362,39.5518217 37.5298951,39.0141891 38.4181214,38.1675053 C39.3063477,37.321599 39.7508933,36.2813209 39.7508933,35.0478371 C39.7508933,34.0911388 39.4827822,33.2168542 38.9465598,32.4261495 C38.4103375,31.635056 37.6933564,31.0838175 36.7964813,30.7712675 C35.8996063,30.4587176 34.5893211,30.3024426 32.8664907,30.3024426 L24.2999067,30.3024426 L24.2999067,47.6967799 L26.8504222,47.6967799 L26.8504222,47.6967799 Z M47.5957394,33.6697406 C48.9029975,32.551325 50.4649612,31.991534 52.278171,31.991534 C53.5551585,31.991534 54.7063068,32.2823143 55.7324806,32.8630974 C56.7586544,33.444658 57.538339,34.2625748 58.0702369,35.3184027 C58.6029997,36.3738419 58.870246,37.6092694 58.870246,39.0242965 C58.870246,41.2619053 58.2471038,42.9890936 57.0012518,44.2070276 C55.7545349,45.4241842 54.1674898,46.0329568 52.2392517,46.0329568 C50.3447436,46.0329568 48.7711041,45.4300153 47.5161709,44.2245211 C46.2621026,43.0194156 45.6342035,41.3688098 45.6342035,39.2734812 C45.634636,36.6564585 46.2884812,34.788545 47.5957394,33.6697406 L47.5957394,33.6697406 Z M44.1068348,43.5741529 C44.8467351,44.9425307 45.9338826,46.022072 47.3678449,46.8131655 C48.8018071,47.6042589 50.4303662,48 52.2522248,48 C53.9331088,48 55.4998293,47.6415783 56.9515215,46.9255124 C58.4032137,46.210224 59.5258211,45.1563398 60.3180463,43.7638598 C61.1102715,42.3721573 61.5063841,40.7934691 61.5063841,39.0297389 C61.5063841,37.2893333 61.1297312,35.7331922 60.3772902,34.3609269 C59.6248492,32.9886616 58.5316476,31.9184502 57.0968204,31.1514589 C55.6628582,30.3840788 54.052029,30.0003887 52.2656303,30.0003887 C49.5365182,30.0003887 47.3103307,30.817528 45.5857705,32.4506403 C43.8612104,34.0841414 42.9989303,36.3442973 42.9989303,39.2318856 C42.9989303,40.7577047 43.3677993,42.205775 44.1068348,43.5741529 L44.1068348,43.5741529 Z M64.7449075,47.6967799 L64.7449075,30.3024426 L67.3840726,30.3024426 L77.53208,43.9551217 L77.53208,30.3024426 L80,30.3024426 L80,47.6967799 L77.3604024,47.6967799 L67.2128275,34.0444896 L67.2128275,47.6967799 L64.7449075,47.6967799 Z" id="Shape" fill="#CC2229"></path>
                </g>
            </g>
        </g>
    </g>
</svg>