<?xml version="1.0" encoding="UTF-8"?>
<svg width="139px" height="139px" viewBox="0 0 139 139" version="1.1" xmlns="http://www.w3.org/2000/svg" xmlns:xlink="http://www.w3.org/1999/xlink">
    <title>Group 3</title>
    <defs>
        <filter x="-22.3%" y="-21.1%" width="144.6%" height="143.1%" filterUnits="objectBoundingBox" id="filter-1">
            <feOffset dx="3" dy="3" in="SourceAlpha" result="shadowOffsetOuter1"></feOffset>
            <feGaussianBlur stdDeviation="2" in="shadowOffsetOuter1" result="shadowBlurOuter1"></feGaussianBlur>
            <feColorMatrix values="0 0 0 0 0   0 0 0 0 0   0 0 0 0 0  0 0 0 0.5 0" type="matrix" in="shadowBlurOuter1" result="shadowMatrixOuter1"></feColorMatrix>
            <feMerge>
                <feMergeNode in="shadowMatrixOuter1"></feMergeNode>
                <feMergeNode in="SourceGraphic"></feMergeNode>
            </feMerge>
        </filter>
        <filter x="-11.9%" y="-11.9%" width="123.8%" height="123.8%" filterUnits="objectBoundingBox" id="filter-2">
            <feOffset dx="0" dy="2" in="SourceAlpha" result="shadowOffsetOuter1"></feOffset>
            <feGaussianBlur stdDeviation="2" in="shadowOffsetOuter1" result="shadowBlurOuter1"></feGaussianBlur>
            <feColorMatrix values="0 0 0 0 0   0 0 0 0 0   0 0 0 0 0  0 0 0 0.5 0" type="matrix" in="shadowBlurOuter1" result="shadowMatrixOuter1"></feColorMatrix>
            <feMerge>
                <feMergeNode in="shadowMatrixOuter1"></feMergeNode>
                <feMergeNode in="SourceGraphic"></feMergeNode>
            </feMerge>
        </filter>
        <polygon id="path-3" points="0 101 101 101 101 0 0 0"></polygon>
        <path d="M19.7768236,19.7875833 C19.9372079,20.3084815 19.9638607,21.1118056 18.3562773,20.7480185 C18.3562773,20.7480185 13.9632449,20.1205093 13.7537634,14.9952269 L13.6536986,5.17578241 L12.5978745,5.17578241 L12.4982773,14.9952269 C12.2887958,20.1200417 7.89623103,20.7480185 7.89623103,20.7480185 C6.29332362,21.1118056 6.31436529,20.3094167 6.47474955,19.7885185 C4.89896251,22.4715648 0.679406953,22.1246111 0.679406953,22.1246111 C-0.785560639,21.6023102 0.574666212,20.6610463 0.574666212,20.6610463 C2.87522177,19.8249907 3.08563843,17.3140185 3.08563843,17.3140185 L3.08563843,10.2206389 L3.32878658,4.73671296 C3.85108751,2.29400926 5.14024029,0.850083333 6.40461066,0 L19.8726801,0.0154305556 C21.5017727,1.12128704 23.1678051,3.21656944 23.1678051,7.17287037 L23.1678051,17.3140185 C23.1678051,17.3140185 23.376819,19.8249907 25.6787773,20.6610463 C25.6787773,20.6610463 27.0376014,21.6027778 25.573569,22.1246111 C25.573569,22.1246111 25.3949486,22.1386389 25.0980273,22.1395741 C23.9500875,22.1395741 21.0299718,21.9198056 19.7777588,19.7875833 M7.06111066,9.67823148 L7.06111066,17.4178241 C7.06111066,18.1739213 6.92784677,18.8098472 6.69966158,19.3443056 C8.21466158,18.1631667 8.31612918,15.2037731 8.31612918,15.2037731 L8.31612918,5.54331019 C6.80814306,6.61035648 7.06111066,9.67963426 7.06111066,9.67963426 M17.9419903,15.2051759 C17.9419903,15.2051759 18.0434579,18.165037 19.5579903,19.3457083 C19.3302727,18.81125 19.1970088,18.1753241 19.1970088,17.4192269 L19.1970088,9.67916667 C19.1970088,9.67916667 19.4495088,6.82685185 17.9419903,5.65225926 L17.9419903,15.2051759 Z" id="path-5"></path>
        <polygon id="path-7" points="0 101 101 101 101 0 0 0"></polygon>
    </defs>
    <g id="Page-1" stroke="none" stroke-width="1" fill="none" fill-rule="evenodd">
        <g id="Skills-2" transform="translate(-1556.000000, -726.000000)">
            <g id="Group-3" filter="url(#filter-1)" transform="translate(1575.000000, 744.000000)">
                <circle id="Oval-Copy-20" cx="51" cy="47" r="47"></circle>
                <g id="github-icon-(1)" filter="url(#filter-2)" transform="translate(0.000000, 1.000000)">
                    <g id="Group" transform="translate(50.500000, 50.500000) scale(-1, 1) rotate(-180.000000) translate(-50.500000, -50.500000) ">
                        <g id="Clipped">
                            <mask id="mask-4" fill="white">
                                <use xlink:href="#path-3"></use>
                            </mask>
                            <g id="Path"></g>
                            <g id="D-link" mask="url(#mask-4)" fill="#A0DCF2" fill-rule="nonzero">
                                <g transform="translate(27.055843, 17.478144)" id="D">
                                    <path d="M47.0772222,8.2375787 C47.0772222,3.68790278 36.5386204,0 23.5386111,0 C10.5386019,0 0,3.68790278 0,8.2375787 C0,12.7872546 10.5381343,16.4765602 23.5386111,16.4765602 C36.539088,16.4765602 47.0772222,12.7825787 47.0772222,8.2375787"></path>
                                </g>
                            </g>
                        </g>
                        <g id="Clipped" transform="translate(37.140417, 6.238620)">
                            <mask id="mask-6" fill="white">
                                <use xlink:href="#path-5"></use>
                            </mask>
                            <g id="Shape"></g>
                            <g id="D-link" mask="url(#mask-6)" fill="#82BDE7" fill-rule="nonzero">
                                <g transform="translate(-10.084575, 11.239523)" id="D">
                                    <path d="M47.0772222,8.2375787 C47.0772222,3.68790278 36.5386204,0 23.5386111,0 C10.5386019,0 0,3.68790278 0,8.2375787 C0,12.7872546 10.5381343,16.4765602 23.5386111,16.4765602 C36.539088,16.4765602 47.0772222,12.7825787 47.0772222,8.2375787"></path>
                                </g>
                            </g>
                        </g>
                        <g id="Clipped">
                            <mask id="mask-8" fill="white">
                                <use xlink:href="#path-7"></use>
                            </mask>
                            <g id="Path"></g>
                            <g id="Group" mask="url(#mask-8)">
                                <g transform="translate(8.325486, 26.611224)">
                                    <path d="M15.3814583,23.3276649 L14.7020463,20.9602436 C14.7020463,20.9602436 14.5252963,20.1045492 15.3314259,19.9530492 C16.1730926,19.9694149 16.1043565,20.7573084 16.0454398,21.012614 L15.3814583,23.3271973 L15.3814583,23.3276649 Z" id="Path" fill="#A0DCF2" fill-rule="nonzero"></path>
                                    <path d="M83.8098935,33.2532529 L83.8720833,33.5609288 C76.9666759,34.9417297 69.8807778,34.9557575 65.589213,34.7776047 C66.2934074,37.3147621 66.5056944,40.2344103 66.5056944,43.4902575 C66.5056944,48.1596371 64.751287,51.8952344 61.9031806,54.7377297 C62.4011667,56.3439103 63.0660833,59.9121094 61.2391991,64.4790862 C61.2391991,64.4790862 58.0128102,65.5021788 50.729588,60.6247205 C47.8744676,61.3382668 44.8360509,61.6908316 41.7929583,61.6908316 C38.4449954,61.6908316 35.061963,61.2643871 31.9066481,60.3988733 C24.3849537,65.530702 21.0650463,64.4795538 21.0650463,64.4795538 C18.897287,59.0554797 20.2374074,55.0482112 20.644213,54.0513038 C18.0967685,51.3018594 16.5415556,47.7930446 16.5415556,43.4907251 C16.5415556,40.2423594 16.9118889,37.3287899 17.8152778,34.7963084 C13.4914491,34.9534196 6.66319444,34.8931001 -3.3224452e-15,33.561864 L0.0617222222,33.2541881 C6.75998611,34.5938409 13.6303241,34.6406001 17.9237593,34.4778779 C18.1224861,33.9541742 18.3445926,33.4491742 18.5924167,32.953526 C14.3429352,32.8165214 7.08776852,32.2755168 0.134199074,30.3134983 L0.219300926,30.011901 C7.2275787,31.9884149 14.546338,32.516327 18.7546713,32.6444473 C21.2936991,27.9124103 26.2992778,24.8552899 35.2045787,23.9004659 C33.9402083,23.0513177 32.6515231,21.6073918 32.1278194,19.1637529 C30.4056759,18.3407899 24.9535463,16.3292066 21.6818009,21.9552807 C21.6818009,21.9552807 19.8507083,25.3032436 16.3456343,25.5650955 C16.3456343,25.5650955 12.9462361,25.6118547 16.1104352,23.446901 C16.1104352,23.446901 18.3862083,22.3747112 19.9554491,18.3501418 C19.9554491,18.3501418 22.0035046,11.4788686 31.8846713,13.6835677 L31.8846713,6.58551215 C31.8846713,6.58551215 31.6756574,4.07453993 29.3736991,3.23848437 C29.3736991,3.23848437 28.0139398,2.29675289 29.4784398,1.77491956 C29.4784398,1.77491956 35.8587407,1.25121585 35.8587407,6.481239 L35.8587407,14.2208316 C35.8587407,14.2208316 35.6062407,17.290577 37.1132917,18.3571557 L37.1132917,5.635364 C37.1132917,5.635364 37.0094861,2.60209085 35.4402454,1.45134548 C35.4402454,1.45134548 34.3942407,-0.430714703 36.6952639,0.0915862229 C36.6952639,0.0915862229 41.0878287,0.719095482 41.2973102,5.84437789 L41.397375,18.7092529 L42.4527315,18.7092529 L42.5532639,5.84437789 C42.7622778,0.719563075 47.1553102,0.0915862229 47.1553102,0.0915862229 C49.4558657,-0.430714703 48.4098611,1.45134548 48.4098611,1.45134548 C46.841088,2.60162326 46.7368148,5.635364 46.7368148,5.635364 L46.7368148,18.2383871 C48.2438657,17.0694057 47.9918333,14.2114797 47.9918333,14.2114797 L47.9918333,6.47188715 C47.9918333,1.24233159 54.3716667,1.7655677 54.3716667,1.7655677 C55.8352315,2.28786863 54.476875,3.22913252 54.476875,3.22913252 C52.1753843,4.07079919 51.9659028,6.5761603 51.9659028,6.5761603 L51.9659028,16.7215168 C51.9659028,20.6773501 50.2998704,22.7731001 48.6707778,23.8789566 C58.1629074,24.8206881 62.7247407,27.8871603 64.8251667,32.6519288 C68.9848704,32.5378362 76.4710278,32.0309659 83.6317407,30.0100307 L83.7168426,30.3116279 C76.5968102,32.3199381 69.1606852,32.8394334 64.9584306,32.9619427 C65.157625,33.4435631 65.3311019,33.9438871 65.4854074,34.458239 C69.742838,34.645276 76.861,34.6382621 83.7935278,33.2518501" id="Path" fill="#292929" fill-rule="nonzero"></path>
                                    <path d="M57.2207083,43.714702 C59.2664259,41.8616325 60.4629954,39.6232668 60.4629954,37.212827 C60.4629954,25.9555353 52.0706435,25.6501973 41.7195463,25.6501973 C31.3684491,25.6501973 22.975162,27.2040075 22.975162,37.208151 C22.975162,39.6031603 24.1553657,41.8270307 26.1758333,43.6726186 C29.5453056,46.7484427 35.249,45.1198177 41.7186111,45.1198177 C48.1629722,45.1198177 53.8451574,46.7648084 57.2193056,43.710026" id="Path" fill="#F5CDB5" fill-rule="nonzero"></path>
                                    <path d="M35.486537,36.6344149 C35.486537,33.534276 33.7405463,31.0204983 31.5868148,31.0204983 C29.4330833,31.0204983 27.6861574,33.5338084 27.6861574,36.6344149 C27.6861574,39.7350214 29.4330833,42.2473964 31.5868148,42.2473964 C33.7405463,42.2473964 35.486537,39.7350214 35.486537,36.6344149" id="Path" fill="#FFFFFF" fill-rule="nonzero"></path>
                                    <path d="M34.2347917,36.5638084 C34.2347917,34.4970492 33.0658102,32.8221325 31.6349769,32.8221325 C30.2041435,32.8221325 29.035162,34.4970492 29.035162,36.5638084 C29.035162,38.6305677 30.1985324,40.3073547 31.6349769,40.3073547 C33.0714213,40.3073547 34.2347917,38.6315029 34.2347917,36.5638084" id="Path" fill="#B1645A" fill-rule="nonzero"></path>
                                    <path d="M56.4094352,36.6344149 C56.4094352,33.534276 54.6634444,31.0204983 52.5087778,31.0204983 C50.3541111,31.0204983 48.6090556,33.5338084 48.6090556,36.6344149 C48.6090556,39.7350214 50.3555139,42.2473964 52.5087778,42.2473964 C54.6620417,42.2473964 56.4094352,39.7350214 56.4094352,36.6344149" id="Path" fill="#FFFFFF" fill-rule="nonzero"></path>
                                    <path d="M55.1576898,36.5638084 C55.1576898,34.4970492 53.9887083,32.8221325 52.557875,32.8221325 C51.1270417,32.8221325 49.9580602,34.4970492 49.9580602,36.5638084 C49.9580602,38.6305677 51.1270417,40.3073547 52.557875,40.3073547 C53.9887083,40.3073547 55.1576898,38.6315029 55.1576898,36.5638084 M42.7496528,31.6540862 C42.7496528,31.1154196 42.3129213,30.6786881 41.7742546,30.6786881 C41.235588,30.6786881 40.7988565,31.1154196 40.7988565,31.6540862 C40.7988565,32.1927529 41.2351204,32.6294844 41.7742546,32.6294844 C42.3133889,32.6294844 42.7496528,32.1927529 42.7496528,31.6540862 M39.5022222,29.1875353 C39.4648855,29.2931974 39.486755,29.4107522 39.5595927,29.4959178 C39.6324304,29.5810834 39.7451706,29.6209213 39.855345,29.6004248 C39.9655195,29.5799283 40.0563901,29.5022113 40.0937269,29.3965492 C40.3443565,28.6881464 41.016287,28.2121371 41.7663056,28.2121371 C42.5163241,28.2121371 43.187787,28.6881464 43.4393519,29.3965492 C43.4766886,29.5021278 43.5675147,29.5797676 43.6776168,29.6002223 C43.7877189,29.620677 43.9003699,29.5808392 43.9731353,29.4957153 C44.0459007,29.4105915 44.0677256,29.2931139 44.0303889,29.1875353 C43.6850971,28.234499 42.7799646,27.5997268 41.7663056,27.5997268 C40.7526465,27.5997268 39.847514,28.234499 39.5022222,29.1875353" id="Shape" fill="#B1645A" fill-rule="nonzero"></path>
                                    <g id="Group" stroke-width="1" fill="none" fill-rule="evenodd" transform="translate(16.518176, 16.720582)">
                                        <path d="M1.36022685,8.00284722 C1.36022685,7.74239815 1.05535648,7.53244907 0.67987963,7.53244907 C0.304402778,7.53244907 -4.91148171e-13,7.74286574 -4.91148171e-13,8.00284722 C-4.91148171e-13,8.2628287 0.303935185,8.47418056 0.67987963,8.47418056 C1.05582407,8.47418056 1.36022685,8.26376389 1.36022685,8.00284722 M3.24368981,6.95777778 C3.24368981,6.6973287 2.93881944,6.48644444 2.56334259,6.48644444 C2.18786574,6.48644444 1.88346296,6.69686111 1.88346296,6.95777778 C1.88346296,7.21869444 2.18739815,7.42817593 2.56334259,7.42817593 C2.93928704,7.42817593 3.24368981,7.21775926 3.24368981,6.95777778 M4.39490278,5.60175926 C4.39490278,5.34224537 4.09096759,5.13136111 3.71455556,5.13136111 C3.33814352,5.13136111 3.03514352,5.34177778 3.03514352,5.60175926 C3.03514352,5.86174074 3.3390787,6.07309259 3.71455556,6.07309259 C4.09003241,6.07309259 4.39490278,5.86267593 4.39490278,5.60175926 M5.43997222,4.03205093 C5.43997222,3.77160185 5.13603704,3.56071759 4.76056019,3.56071759 C4.38508333,3.56071759 4.08021296,3.77113426 4.08021296,4.03205093 C4.08021296,4.29296759 4.38414815,4.50338426 4.76056019,4.50338426 C5.13697222,4.50338426 5.43997222,4.29296759 5.43997222,4.03205093 M6.59118519,2.56240741 C6.59118519,2.30289352 6.28725,2.09200926 5.91130556,2.09200926 C5.53536111,2.09200926 5.23095833,2.30242593 5.23095833,2.56240741 C5.23095833,2.82238889 5.5358287,3.03374074 5.91130556,3.03374074 C6.28678241,3.03374074 6.59118519,2.82332407 6.59118519,2.56240741 M8.16089352,1.30785648 C8.16089352,1.04740741 7.85695833,0.836523148 7.4805463,0.836523148 C7.10413426,0.836523148 6.80113426,1.04693981 6.80113426,1.30785648 C6.80113426,1.56877315 7.10506944,1.77825463 7.4805463,1.77825463 C7.85602315,1.77825463 8.16089352,1.56783796 8.16089352,1.30785648" id="Shape" fill="#C5E6DA" fill-rule="nonzero"></path>
                                        <path d="M10.3576435,0.470398148 C10.3576435,0.210884259 10.0537083,0 9.67776389,0 C9.30181944,0 8.99741667,0.210416667 8.99741667,0.470398148 C8.99741667,0.73037963 9.30135185,0.941731481 9.67776389,0.941731481 C10.0541759,0.941731481 10.3576435,0.731314815 10.3576435,0.470398148" id="E" fill="#C5E6DA" fill-rule="nonzero"></path>
                                        <g id="E-link" transform="translate(11.183880, 0.000000)" fill="#C5E6DA" fill-rule="nonzero">
                                            <path d="M1.36022685,0.5605539 C1.36022685,0.251301997 1.05629167,0 0.680347222,0 C0.304402778,0 -2.46113372e-13,0.250744786 -2.46113372e-13,0.5605539 C-2.46113372e-13,0.870363014 0.303935185,1.12222222 0.680347222,1.12222222 C1.05675926,1.12222222 1.36022685,0.871477436 1.36022685,0.5605539" id="E"></path>
                                        </g>
                                        <path d="M14.7633009,0.834652778 C14.7633009,0.574203704 14.4593657,0.363319444 14.0834213,0.363319444 C13.7074769,0.363319444 13.4030741,0.573736111 13.4030741,0.834652778 C13.4030741,1.09556944 13.7070093,1.30598611 14.0834213,1.30598611 C14.4598333,1.30598611 14.7633009,1.09556944 14.7633009,0.834652778" id="Path" fill="#C5E6DA" fill-rule="nonzero"></path>
                                    </g>
                                </g>
                            </g>
                        </g>
                    </g>
                </g>
            </g>
        </g>
    </g>
</svg>