<?xml version="1.0" encoding="UTF-8"?>
<svg width="71px" height="71px" viewBox="0 0 71 71" version="1.1" xmlns="http://www.w3.org/2000/svg" xmlns:xlink="http://www.w3.org/1999/xlink">
    <title>jwt-seeklogo.com</title>
    <g id="Page-1" stroke="none" stroke-width="1" fill="none" fill-rule="evenodd">
        <g id="Skills-2" transform="translate(-1508.000000, -857.000000)" fill-rule="nonzero">
            <g id="jwt-seeklogo.com" transform="translate(1508.000000, 857.000000)">
                <polygon id="Path" fill="#FFFFFF" points="42 18.8010753 41.9271524 0 31 0 31.0728476 18.8010753 36.5364238 26"></polygon>
                <polygon id="Path" fill="#FFFFFF" points="31 52.1796247 31 71 42 71 42 52.1796247 36.5 45"></polygon>
                <polygon id="Path" fill="#00F2E6" points="41 51.8347827 52.3261651 67 61 60.8782607 49.6738352 45.7130437 41 43"></polygon>
                <polygon id="Path" fill="#00F2E6" points="30 18.1652174 18.6428571 3 10 9.12173913 21.2857143 24.2869566 30 27"></polygon>
                <polygon id="Path" fill="#00B9F1" points="20.8275862 24.8761062 3.17241379 19 0 29.0530973 17.6551724 35 26 32.1681417"></polygon>
                <polygon id="Path" fill="#00B9F1" points="45 38.7733336 50.1724137 46.097778 67.8275863 52 71 41.9022223 53.3448274 36"></polygon>
                <polygon id="Path" fill="#D63AFF" points="53.3448274 35 71 29.0530973 67.8275863 19 50.1724137 24.8761062 45 32.1681417"></polygon>
                <polygon id="Path" fill="#D63AFF" points="17.6551724 36 0 41.9022223 3.17241379 52 20.8275862 46.097778 26 38.7733336"></polygon>
                <polygon id="Path" fill="#FB015B" points="21.2857143 45.7130437 10 60.8782607 18.6428571 67 30 51.8347827 30 43"></polygon>
                <polygon id="Path" fill="#FB015B" points="49.6738352 24.2869566 61 9.12173913 52.3261651 3 41 18.1652174 41 27"></polygon>
            </g>
        </g>
    </g>
</svg>