<?xml version="1.0" encoding="UTF-8"?>
<svg width="118px" height="118px" viewBox="0 0 118 118" version="1.1" xmlns="http://www.w3.org/2000/svg" xmlns:xlink="http://www.w3.org/1999/xlink">
    <title>Group 21</title>
    <defs>
        <filter x="-17.0%" y="-17.0%" width="134.0%" height="134.0%" filterUnits="objectBoundingBox" id="filter-1">
            <feOffset dx="2" dy="4" in="SourceAlpha" result="shadowOffsetOuter1"></feOffset>
            <feGaussianBlur stdDeviation="2" in="shadowOffsetOuter1" result="shadowBlurOuter1"></feGaussianBlur>
            <feColorMatrix values="0 0 0 0 0   0 0 0 0 0   0 0 0 0 0  0 0 0 0.5 0" type="matrix" in="shadowBlurOuter1" result="shadowMatrixOuter1"></feColorMatrix>
            <feMerge>
                <feMergeNode in="shadowMatrixOuter1"></feMergeNode>
                <feMergeNode in="SourceGraphic"></feMergeNode>
            </feMerge>
        </filter>
    </defs>
    <g id="Page-1" stroke="none" stroke-width="1" fill="none" fill-rule="evenodd">
        <g id="Skills-2" transform="translate(-1304.000000, -819.000000)">
            <g id="Group-21" filter="url(#filter-1)" transform="translate(1316.000000, 831.000000)">
                <circle id="Oval-Copy-26" cx="47" cy="47" r="47"></circle>
                <g id="MetaMask_Fox" transform="translate(13.000000, 16.000000)" fill-rule="nonzero" stroke-linecap="round" stroke-linejoin="round">
                    <polygon id="Path" stroke="#E2761B" fill="#E2761B" points="65 0 39 19 43.8080402 7.7902571"></polygon>
                    <path d="M3.84575528,0 L30.5958549,19.6747253 L25.8529295,7.99120879 L3.84575528,0 Z M56.3973695,45.178022 L49.2152252,55.8857143 L64.5823037,60 L69,45.4153846 L56.3973695,45.178022 Z M1,45.4153846 L5.39059386,60 L20.7576724,55.8857143 L13.5755281,45.178022 L1,45.4153846 Z" id="Shape" stroke="#E4761B" fill="#E4761B"></path>
                    <path d="M20.1986014,27.425 L16,33.8979167 L30.9608392,34.575 L30.4293706,18.1895833 L20.1986014,27.425 Z M49.7748252,27.425 L39.4111888,18 L39.0657343,34.575 L54,33.8979167 L49.7748252,27.425 Z M21.048951,57 L30.0307692,52.53125 L22.2713287,46.35625 L21.048951,57 Z M39.9426573,52.53125 L48.951049,57 L47.7020979,46.35625 L39.9426573,52.53125 Z" id="Shape" stroke="#E4761B" fill="#E4761B"></path>
                    <path d="M48,56.2038217 L38.96,52 L39.68,57.6305732 L39.6,60 L48,56.2038217 Z M20,56.2038217 L28.4,60 L28.3466667,57.6305732 L29.0133333,52 L20,56.2038217 Z" id="Shape" stroke="#D7C1B3" fill="#D7C1B3"></path>
                    <path d="M28.5277207,42 L21,39.137931 L26.312115,36 L28.5277207,42 Z M39.4455852,42 L41.661191,36 L47,39.137931 L39.4455852,42 Z" id="Shape" stroke="#233447" fill="#233447"></path>
                    <path d="M20.0443038,56 L21.3202532,45.052755 L13,45.2954279 L20.0443038,56 Z M46.6797468,45.052755 L47.9556962,56 L55,45.2954279 L46.6797468,45.052755 Z M53.0063291,33 L38.0670886,33.6740914 L39.4493671,41.4665885 L41.6556962,36.7749121 L46.9721519,39.2286049 L53.0063291,33 Z M21.0544304,39.2286049 L26.3708861,36.7749121 L28.5506329,41.4665885 L29.9594937,33.6740914 L14.9936709,33 L21.0544304,39.2286049 Z" id="Shape" stroke="#CD6116" fill="#CD6116"></path>
                    <path d="M16,33 L22.2713287,45.6412214 L22.0587413,39.3480916 L16,33 Z M47.9678322,39.3480916 L47.7020979,45.6412214 L54,33 L47.9678322,39.3480916 Z M30.9608392,33.6870229 L29.5524476,41.6290076 L31.3062937,51 L31.7048951,38.6610687 L30.9608392,33.6870229 Z M39.0657343,33.6870229 L38.3482517,38.6335878 L38.6671329,51 L40.4475524,41.6290076 L39.0657343,33.6870229 Z" id="Shape" stroke="#E4751F" fill="#E4751F"></path>
                    <path d="M39.4533333,41.9978118 L37.6666667,50.2056893 L38.9466667,51 L46.7333333,45.512035 L47,40 L39.4533333,41.9978118 Z M21,40 L21.2133333,45.512035 L29,51 L30.28,50.2056893 L28.52,41.9978118 L21,40 Z" id="Shape" stroke="#F6851B" fill="#F6851B"></path>
                    <polygon id="Path" stroke="#C0AD9E" fill="#C0AD9E" points="39.6 60.2571429 39.68 57.6 39.0133333 56.9714286 28.96 56.9714286 28.3466667 57.6 28.4 60.2571429 20 56 22.9333333 58.5714286 28.88 63 39.0933333 63 45.0666667 58.5714286 48 56"></polygon>
                    <polygon id="Path" stroke="#161616" fill="#161616" points="38.3011765 51.9094488 37.0588235 51 29.8894118 51 28.6470588 51.9094488 28 58 28.5952941 57.3937008 38.3529412 57.3937008 39 58"></polygon>
                    <path d="M66.7,21.3423729 L69,10.2779661 L65.5635294,0 L39.5329412,19.3627119 L49.5447059,27.8508475 L63.6964706,32 L66.8352941,28.3389831 L65.4823529,27.3627119 L67.6470588,25.3830508 L65.9694118,24.0813559 L68.1341176,22.4271186 L66.7,21.3423729 Z M0,10.2779661 L2.3,21.3423729 L0.838823529,22.4271186 L3.00352941,24.0813559 L1.35294118,25.3830508 L3.51764706,27.3627119 L2.16470588,28.3389831 L5.27647059,32 L19.4282353,27.8508475 L29.44,19.3627119 L3.40941176,0 L0,10.2779661 Z" id="Shape" stroke="#763D16" fill="#763D16"></path>
                    <path d="M64.2299721,31.8491965 L50.0554006,27.6885043 L54.3646871,34.1878863 L47.9414109,46.697157 L56.3973695,46.5883807 L69,46.5883807 L64.2299721,31.8491965 Z M19.8903946,27.6885043 L5.71582304,31.8491965 L1,46.5883807 L13.5755281,46.5883807 L22.0043842,46.697157 L15.6082104,34.1878863 L19.8903946,27.6885043 Z M39.1331208,34.8677379 L40.027501,19.1767614 L44.1470705,8 L25.8529295,8 L29.9182941,19.1767614 L30.8668792,34.8677379 L31.1921084,39.8170581 L31.2192108,52 L38.7265843,52 L38.7807892,39.8170581 L39.1331208,34.8677379 Z" id="Shape" stroke="#F6851B" fill="#F6851B"></path>
                </g>
            </g>
        </g>
    </g>
</svg>