<?xml version="1.0" encoding="UTF-8"?>
<svg width="114px" height="114px" viewBox="0 0 114 114" version="1.1" xmlns="http://www.w3.org/2000/svg" xmlns:xlink="http://www.w3.org/1999/xlink">
    <title>Group 15</title>
    <defs>
        <filter x="-14.4%" y="-14.4%" width="128.7%" height="128.7%" filterUnits="objectBoundingBox" id="filter-1">
            <feOffset dx="-3" dy="-1" in="SourceAlpha" result="shadowOffsetOuter1"></feOffset>
            <feGaussianBlur stdDeviation="2" in="shadowOffsetOuter1" result="shadowBlurOuter1"></feGaussianBlur>
            <feColorMatrix values="0 0 0 0 0   0 0 0 0 0   0 0 0 0 0  0 0 0 0.5 0" type="matrix" in="shadowBlurOuter1" result="shadowMatrixOuter1"></feColorMatrix>
            <feMerge>
                <feMergeNode in="shadowMatrixOuter1"></feMergeNode>
                <feMergeNode in="SourceGraphic"></feMergeNode>
            </feMerge>
        </filter>
    </defs>
    <g id="Page-1" stroke="none" stroke-width="1" fill="none" fill-rule="evenodd">
        <g id="Skills-2" transform="translate(-1040.000000, -387.000000)">
            <g id="Group-15" filter="url(#filter-1)" transform="translate(1050.000000, 397.000000)">
                <circle id="Oval-Copy-8" cx="47" cy="47" r="47"></circle>
                <g id="mongodb-icon" transform="translate(27.000000, 3.000000)" fill-rule="nonzero">
                    <path d="M20.0666678,0 L22.4026367,4.45941652 C22.9278194,5.28235124 23.4967673,6.01075968 24.1669223,6.68912478 C26.1226807,8.67695696 27.9799675,10.7593154 29.6485166,12.9890237 C33.6065341,18.2713749 36.2762128,24.137565 38.1827354,30.4819469 C39.3261019,34.3575246 39.947021,38.3331889 39.9935215,42.3533362 C40.1849944,54.3720754 36.1312405,64.6921216 27.9580848,73.2689919 C26.6232455,74.6257221 25.1954051,75.8823657 23.6636222,77 C22.8539656,77 22.4710198,76.368898 22.13731,75.7878394 C21.5163909,74.7230286 21.1361805,73.5080878 20.9447076,72.2987074 C20.6574984,70.8446707 20.4687608,69.390634 20.5617619,67.8893342 L20.5617619,67.2109691 C20.4961141,67.0663995 19.7821939,0.341962738 20.0666678,0 Z" id="Path" fill="#599636"></path>
                    <path d="M19.4671118,0.0955625406 C19.3709722,-0.0988791132 19.2748325,0.0483409961 19.1786929,0.142784085 C19.2253893,1.11499235 18.890274,1.98164658 18.3656263,2.80941248 C17.7887886,3.6316229 17.0251653,4.26216941 16.2587951,4.93993746 C12.001183,8.66766173 8.65003032,13.1703749 5.9663613,18.2064137 C2.39546087,24.9840942 0.555073725,32.2478789 0.0331728926,39.8949913 C-0.205802752,42.6532851 0.895682689,52.3864787 1.75544564,55.1947717 C4.10125254,62.6502203 8.31491505,68.8973529 13.772899,74.3194973 C15.1133601,75.6250341 16.547214,76.8361278 18.0305111,78 C18.461766,78 18.5084624,77.6111167 18.6073488,77.3222319 C18.7964209,76.7040786 18.9405566,76.0727759 19.0386037,75.4333702 L20,68.1723633 L19.4671118,0.0955625406 Z" id="Path" fill="#6CAC48"></path>
                    <path d="M21.7975731,80.2625487 C21.8940982,79.1554913 22.4236073,78.2366335 23,77.3205435 C22.4208494,77.0797585 21.9906233,76.6009561 21.6541644,76.0668009 C21.3645891,75.5852308 21.1246553,75.0067933 20.9371208,74.4754057 C20.264203,72.4494905 20.1207943,70.3239401 19.9277441,68.2537426 L19.9277441,67 C19.6878103,67.1937351 19.6381688,68.8321801 19.6381688,69.0757328 C19.4978315,71.2637657 19.2085,73.4396008 18.7722008,75.5879985 C18.6287921,76.4570386 18.532267,77.3233111 18,78.0954837 C18,78.1923512 18,78.2892188 18.0468836,78.4331362 C18.9128516,80.990439 19.1500276,83.5947918 19.2961942,86.2489621 L19.2961942,87.2176374 C19.2961942,88.3745125 19.2493105,88.1309599 20.2062879,88.51843 C20.5923883,88.6623475 21.0226145,88.7121651 21.4087148,89 C21.6982901,89 21.7451737,88.759215 21.7451737,88.5654799 L21.601765,86.9740848 L21.601765,82.5347842 C21.5548814,81.759844 21.6982901,80.990439 21.7948152,80.2653164 L21.7975731,80.2625487 Z" id="Path" fill="#C2BFBF"></path>
                </g>
            </g>
        </g>
    </g>
</svg>