<?xml version="1.0" encoding="UTF-8"?>
<svg width="112px" height="112px" viewBox="0 0 112 112" version="1.1" xmlns="http://www.w3.org/2000/svg" xmlns:xlink="http://www.w3.org/1999/xlink">
    <title>Group 11</title>
    <defs>
        <filter x="-12.8%" y="-12.8%" width="125.5%" height="125.5%" filterUnits="objectBoundingBox" id="filter-1">
            <feOffset dx="-1" dy="-2" in="SourceAlpha" result="shadowOffsetOuter1"></feOffset>
            <feGaussianBlur stdDeviation="2" in="shadowOffsetOuter1" result="shadowBlurOuter1"></feGaussianBlur>
            <feColorMatrix values="0 0 0 0 0   0 0 0 0 0   0 0 0 0 0  0 0 0 0.5 0" type="matrix" in="shadowBlurOuter1" result="shadowMatrixOuter1"></feColorMatrix>
            <feMerge>
                <feMergeNode in="shadowMatrixOuter1"></feMergeNode>
                <feMergeNode in="SourceGraphic"></feMergeNode>
            </feMerge>
        </filter>
    </defs>
    <g id="Page-1" stroke="none" stroke-width="1" fill="none" fill-rule="evenodd">
        <g id="Skills-2" transform="translate(-1323.000000, -388.000000)">
            <g id="Group-11" filter="url(#filter-1)" transform="translate(1332.000000, 397.000000)">
                <circle id="Oval-Copy-21" cx="47" cy="47" r="47"></circle>
                <g id="material-ui-1" transform="translate(10.000000, 19.000000)" fill-rule="nonzero">
                    <polygon id="Path" fill="#00B0FF" points="0 32.5714286 0 0 28 16.2857143 28 27.1428571 9.33333333 16.2857143 9.33333333 38"></polygon>
                    <polygon id="Path" fill="#0081CB" points="28 16.5 56 0 56 33 37.3333333 44 28 38.5 46.6666667 27.5 46.6666667 16.5 28 27.5"></polygon>
                    <polygon id="Path" fill="#00B0FF" points="28 38 28 48.5 46 59 46 48.5"></polygon>
                    <path d="M46,59 L74,42.9090909 L74,21.4545455 L64.6666667,26.8181818 L64.6666667,37.5454545 L46,48.2727273 L46,59 Z M64.6666667,16.0909091 L64.6666667,5.36363636 L74,0 L74,10.7272727 L64.6666667,16.0909091 Z" id="Shape" fill="#0081CB"></path>
                </g>
            </g>
        </g>
    </g>
</svg>