<?xml version="1.0" encoding="UTF-8"?>
<svg width="110px" height="110px" viewBox="0 0 110 110" version="1.1" xmlns="http://www.w3.org/2000/svg" xmlns:xlink="http://www.w3.org/1999/xlink">
    <title>Group 22</title>
    <defs>
        <filter x="-11.2%" y="-11.2%" width="122.3%" height="122.3%" filterUnits="objectBoundingBox" id="filter-1">
            <feOffset dx="1" dy="1" in="SourceAlpha" result="shadowOffsetOuter1"></feOffset>
            <feGaussianBlur stdDeviation="2" in="shadowOffsetOuter1" result="shadowBlurOuter1"></feGaussianBlur>
            <feColorMatrix values="0 0 0 0 0   0 0 0 0 0   0 0 0 0 0  0 0 0 0.5 0" type="matrix" in="shadowBlurOuter1" result="shadowMatrixOuter1"></feColorMatrix>
            <feMerge>
                <feMergeNode in="shadowMatrixOuter1"></feMergeNode>
                <feMergeNode in="SourceGraphic"></feMergeNode>
            </feMerge>
        </filter>
        <radialGradient cx="49.999994%" cy="-50.0000022%" fx="49.999994%" fy="-50.0000022%" r="100.253791%" id="radialGradient-2">
            <stop stop-color="#20C6B7" offset="0%"></stop>
            <stop stop-color="#4D9ABF" offset="100%"></stop>
        </radialGradient>
    </defs>
    <g id="Page-1" stroke="none" stroke-width="1" fill="none" fill-rule="evenodd">
        <g id="Skills-2" transform="translate(-1411.000000, -701.000000)">
            <g id="Group-22" filter="url(#filter-1)" transform="translate(1419.000000, 709.000000)">
                <circle id="Oval-Copy-18" cx="47" cy="47" r="47"></circle>
                <g id="netlify-icon" transform="translate(5.000000, 5.000000)" fill="url(#radialGradient-2)" fill-rule="nonzero">
                    <path d="M60.8775677,29.1501918 L60.8470272,29.1373293 C60.8293161,29.1305043 60.8118945,29.1244668 60.7965651,29.1087561 C60.7455634,29.0540774 60.7228916,28.9788055 60.7351683,28.9050141 L62.430475,18.5515574 L70.3806568,26.4951959 L62.1124686,30.0091469 C62.0899415,30.0184656 62.0648617,30.0230331 62.0400846,30.0220094 L62.0071888,30.0220094 C61.9962674,30.0151844 61.9854249,30.0066138 61.9633584,29.9847738 C61.6556392,29.642542 61.2876798,29.3596366 60.8777348,29.1500999 L60.8775677,29.1501918 Z M72.4091717,28.5192573 L80.9098413,37.0105784 C82.6753239,38.7763213 83.5591672,39.6570023 83.8815619,40.6778871 C83.929853,40.8290713 83.9692753,40.9802031 84,41.135754 L63.684812,32.5414634 C63.6738906,32.5368696 63.6630481,32.5324071 63.6519162,32.5286009 C63.5707819,32.4957621 63.4764578,32.4585265 63.4764578,32.3752457 C63.4764578,32.2919939 63.5729346,32.2525401 63.6540675,32.2197197 L63.6804368,32.208826 L72.4091717,28.5192573 Z M83.6534768,43.8610408 C83.2148428,44.6847606 82.359507,45.5391495 80.9120334,46.9872321 L71.3279456,56.5585923 L58.9322411,53.9800903 L58.8664626,53.9672278 C58.7567748,53.9495615 58.6405658,53.9299922 58.6405658,53.8314169 C58.5453784,52.798902 58.0251049,51.8522745 57.2040531,51.2178619 C57.1535909,51.167475 57.1667492,51.08862 57.1822892,51.0163157 C57.1822892,51.0054219 57.1822892,50.9946069 57.1866315,50.9855244 L59.5179523,36.6887245 L59.5265052,36.6405032 C59.5394004,36.5309489 59.559401,36.4038949 59.6581056,36.4038949 C60.6673174,36.2784855 61.5838802,35.7536234 62.2021662,34.9470514 C62.2219037,34.9253427 62.2350357,34.9010352 62.2613787,34.8878839 C62.3315257,34.8550189 62.4148955,34.8878839 62.4872755,34.9186752 L83.6512386,43.8612836 L83.6534768,43.8610408 Z M69.1238237,58.7602927 L53.3638238,74.5029807 L56.061404,57.9409567 L56.0657462,57.919248 C56.0679831,57.8975392 56.0725885,57.8754498 56.0786414,57.8557098 C56.1004052,57.8031311 56.1576045,57.7812123 56.2124181,57.7593067 L56.2387611,57.748413 C56.8294159,57.4966833 57.3518105,57.1085036 57.7630042,56.6157977 C57.8156507,56.5544514 57.8792449,56.4953102 57.9603791,56.4843298 C57.9813798,56.480786 58.00292,56.480786 58.0239733,56.4843298 L69.1213341,58.7627025 L69.1238237,58.7602927 Z M50.0280334,77.8351045 L48.251582,79.6096058 L28.6118844,51.2569927 C28.6047789,51.246624 28.5974629,51.236544 28.5901205,51.2262015 C28.5595669,51.1845427 28.5265264,51.1429496 28.5330792,51.0947323 C28.5330792,51.0596754 28.5573695,51.0290286 28.5813439,51.0027392 L28.6031078,50.9742186 C28.6623334,50.8865436 28.7127956,50.7989512 28.7675829,50.7047452 L28.8114396,50.6280559 L28.8182819,50.6212309 C28.8491514,50.5686521 28.8775075,50.518239 28.9301145,50.4897617 C28.9761555,50.4680529 29.0398023,50.4768992 29.0902369,50.4875304 L50.8485154,54.9698006 C50.9093595,54.9791193 50.9667298,55.0041618 51.0151932,55.0420931 C51.0437862,55.07064 51.0503259,55.1012606 51.0568788,55.1363306 C51.3645217,56.2990927 52.1985937,57.2513771 53.3114418,57.7104555 C53.3728386,57.7412467 53.3465746,57.8090373 53.3182842,57.8813298 C53.3041127,57.9130792 53.2928754,57.946023 53.2853884,57.9799117 C53.0112452,59.6448744 50.6601843,73.9679637 50.0285584,77.8346281 L50.0280334,77.8351045 Z M46.3172175,81.5396567 C45.0079064,82.8343842 44.2359141,83.520084 43.3630382,83.7961133 C42.5023943,84.0679622 41.5787431,84.0679622 40.7180953,83.7961133 C39.6960856,83.4718838 38.8122476,82.5912068 37.0467571,80.8254769 L17.3237186,61.1241052 L22.4754433,53.1432259 C22.4997336,53.1037984 22.5237081,53.0687284 22.5631567,53.040234 C22.617948,53.0008065 22.6969335,53.0185252 22.762733,53.040234 C23.9451939,53.3965856 25.2147748,53.3323177 26.3551186,52.8584042 C26.4143443,52.8366599 26.4735567,52.8211685 26.5195937,52.8627354 C26.5428708,52.8834335 26.5632267,52.9072423 26.5809905,52.9328098 L46.3172175,81.5417397 L46.3172175,81.5396567 Z M15.4222579,59.22473 L10.8977831,54.7052268 L19.83269,50.8977129 C19.855467,50.8876067 19.8801389,50.8825667 19.9050739,50.8823173 C19.979629,50.8823173 20.023512,50.9568148 20.0629935,51.0246921 C20.152786,51.1626739 20.2478667,51.2971487 20.3481002,51.427787 L20.3766933,51.4628439 C20.4030625,51.5000795 20.3852462,51.5373414 20.3589822,51.5723983 L15.4243816,59.22473 L15.4222579,59.22473 Z M8.89543223,52.7050766 L3.17129936,46.9872321 C2.19753981,46.0145462 1.49134334,45.3091221 1.00007711,44.7022851 L18.4049447,48.3082515 C18.4267086,48.3123202 18.4487224,48.3161265 18.4707495,48.3191452 C18.5782267,48.3368115 18.6966213,48.3564071 18.6966213,48.4571769 C18.6966213,48.5667313 18.5672224,48.6170959 18.4575648,48.6587218 L18.407129,48.6804306 L8.89543223,52.7050766 Z M0,41.7623061 C0.0199177553,41.393974 0.0861633384,41.02962 0.197369994,40.6778871 C0.521957167,39.6570023 1.40360588,38.7763213 3.1712862,37.0105784 L10.4964174,29.6934985 C13.8691243,34.5829757 17.2509768,39.4661517 20.6419506,44.3430026 C20.7011762,44.4218708 20.7669415,44.509509 20.6989919,44.5752193 C20.3787789,44.9279274 20.0585895,45.3134966 19.8326926,45.7319308 C19.8081392,45.7857039 19.7704669,45.8324552 19.7230048,45.8677667 C19.6944118,45.8854329 19.6637924,45.8786604 19.6309097,45.8720979 L19.6265675,45.8720979 L0,41.7601181 L0,41.7623061 Z M12.4571116,27.7349716 L22.3021824,17.8963391 C23.2298824,18.3016259 26.6007622,19.7234165 29.6119631,20.9940477 C31.8928415,21.9579819 33.9719554,22.8342738 34.6255149,23.1190732 C34.6912933,23.1453757 34.7505058,23.1716257 34.7790317,23.2373688 C34.7967428,23.2767963 34.7875846,23.3271832 34.7790317,23.368838 C34.4623201,24.8114842 34.8933907,26.3165056 35.9260521,27.373517 C35.9918305,27.439247 35.9260521,27.533411 35.8690107,27.6145182 L35.8384703,27.6605345 L25.837686,43.1337623 C25.811343,43.1775604 25.7872501,43.2148223 25.7433671,43.2433166 C25.6907338,43.2761816 25.6161393,43.2609829 25.5547478,43.2455479 C25.1657838,43.1437635 24.7659207,43.0893158 24.3638642,43.0834331 C24.0041906,43.0834331 23.6138094,43.1491631 23.2190413,43.2214412 L23.2168044,43.2214412 C23.1729477,43.2282662 23.1334595,43.2368368 23.0983663,43.2105475 C23.0596019,43.178785 23.026285,43.1412081 22.999692,43.0988143 L12.4550339,27.7351212 L12.4571116,27.7349716 Z M24.2957527,15.9093335 L37.0467571,3.17234622 C38.8122476,1.4087951 39.6960856,0.525926295 40.7180953,0.203884734 C41.5787431,-0.0679615779 42.5023943,-0.0679615779 43.3630382,0.203884734 C44.3850505,0.525926295 45.2688899,1.4087951 47.0343804,3.17234622 L49.7977535,5.93268333 L40.7290614,19.9622088 C40.7067844,20.0030538 40.6760202,20.0388194 40.6391375,20.0673532 C40.5843199,20.1045888 40.5075371,20.0890619 40.4417376,20.0673532 C38.9901863,19.6273336 37.4147849,19.9305828 36.2308804,20.8779282 C36.1716548,20.9392745 36.0839691,20.9042307 36.0093877,20.8711032 C34.8250872,20.3562804 25.6138418,16.4677077 24.2957527,15.909071 L24.2957527,15.9093335 Z M51.7233413,7.85615339 L60.0968067,16.2204157 L58.0791014,28.7032776 L58.0791014,28.7361426 C58.0773908,28.7646633 58.0712064,28.7926195 58.0613903,28.8193945 C58.0396264,28.8631926 57.9956118,28.8719733 57.9517025,28.8851245 C57.5203068,29.0156658 57.114008,29.2178367 56.7498554,29.4831953 C56.7341706,29.4946141 56.7196439,29.5069253 56.7059987,29.5204309 C56.6817084,29.5467334 56.6577339,29.5707916 56.6182853,29.5753039 C56.5861395,29.5761492 56.5541253,29.5711197 56.5239664,29.5597928 L43.764196,24.1442735 L43.7399058,24.1333797 C43.6587715,24.100541 43.562246,24.061061 43.562246,23.9778524 C43.4872304,23.2675825 43.2550202,22.5828657 42.8823686,21.9733237 C42.8209455,21.8725499 42.7529696,21.7673596 42.8055897,21.6644399 L51.7233413,7.85615339 Z M43.0998599,26.7096991 L55.0613226,31.7703211 C55.1271011,31.8011254 55.1995035,31.8294623 55.2279991,31.8973711 C55.2395784,31.9382423 55.2395784,31.9813842 55.2279991,32.0222554 C55.1928796,32.1975214 55.1622207,32.3968757 55.1622207,32.5984246 L55.1622207,32.9336069 C55.1622207,33.0168587 55.0766784,33.0519025 54.9977456,33.0847911 L54.9734553,33.0933224 C53.0785684,33.9017554 28.3704923,44.4260918 28.3332056,44.4260918 C28.295928,44.4260918 28.2564531,44.4260918 28.2191755,44.3888561 C28.1533971,44.3231524 28.2191755,44.2311081 28.2784011,44.1478549 C28.2890594,44.1334699 28.2989018,44.118678 28.3089548,44.1040568 L38.1386703,28.9002891 L38.1563814,28.8740129 C38.2134228,28.7820198 38.2792012,28.6790318 38.384456,28.6790318 L38.4831566,28.6944275 C38.706852,28.7252187 38.90424,28.7535425 39.1038189,28.7535425 C40.5951637,28.7535425 41.9768522,28.0284111 42.8102491,26.7884504 C42.8302366,26.7553098 42.8552769,26.7257129 42.8848042,26.7007754 C42.9440298,26.6569773 43.0317405,26.6790666 43.0997178,26.7093066 L43.0998599,26.7096991 Z M29.4014233,46.8316903 L56.3333484,35.358763 C56.3333484,35.358763 56.372797,35.358763 56.4101009,35.3959986 C56.5570386,35.5427912 56.6820584,35.6413416 56.8026729,35.7333754 L56.8618985,35.770611 C56.9166898,35.8014023 56.9715863,35.8363148 56.9759154,35.8933167 C56.9759154,35.9150254 56.9759154,35.9283735 56.97131,35.9480742 L54.6641097,50.1046611 L54.6555568,50.1616367 C54.640122,50.2711911 54.6250031,50.3960741 54.52178,50.3960741 C53.2729853,50.4802841 52.1462262,51.1746032 51.5105791,52.2516341 L51.4996577,52.2693004 C51.4691041,52.3197135 51.4404321,52.3678822 51.3899699,52.3941847 C51.3439289,52.4158935 51.2847165,52.4070472 51.2364531,52.396416 L29.7589324,47.9710493 C29.7371685,47.966718 29.4255715,46.8340554 29.4014233,46.8318649 L29.4014233,46.8316903 Z" id="path14"></path>
                </g>
            </g>
        </g>
    </g>
</svg>