<?xml version="1.0" encoding="UTF-8"?>
<svg width="114px" height="114px" viewBox="0 0 114 114" version="1.1" xmlns="http://www.w3.org/2000/svg" xmlns:xlink="http://www.w3.org/1999/xlink">
    <title>Group 13</title>
    <defs>
        <filter x="-14.4%" y="-14.4%" width="128.7%" height="128.7%" filterUnits="objectBoundingBox" id="filter-1">
            <feOffset dx="-3" dy="-2" in="SourceAlpha" result="shadowOffsetOuter1"></feOffset>
            <feGaussianBlur stdDeviation="2" in="shadowOffsetOuter1" result="shadowBlurOuter1"></feGaussianBlur>
            <feColorMatrix values="0 0 0 0 0   0 0 0 0 0   0 0 0 0 0  0 0 0 0.5 0" type="matrix" in="shadowBlurOuter1" result="shadowMatrixOuter1"></feColorMatrix>
            <feMerge>
                <feMergeNode in="shadowMatrixOuter1"></feMergeNode>
                <feMergeNode in="SourceGraphic"></feMergeNode>
            </feMerge>
        </filter>
        <path d="M0,15.0943726 C0.0744447342,15.1918133 0.167546834,15.2762123 0.277089581,15.3395581 L6.95310123,19.2288039 L8.06515408,19.8734406 C8.23140783,19.9703224 8.42093711,20.0113108 8.6071413,19.9973375 C8.66920937,19.9923071 8.73127744,19.9805695 8.79186769,19.9632426 L17,4.80496524 C16.937193,4.73603011 16.8636719,4.67827364 16.781284,4.62983273 L11.6854218,1.66189569 L8.99174164,0.0987449235 C8.91526492,0.0540302412 8.83232277,0.0223573412 8.74790281,0 L0,15.0943726 Z" id="path-2"></path>
        <linearGradient x1="22.4545325%" y1="71.2953793%" x2="78.0514663%" y2="29.363948%" id="linearGradient-4">
            <stop stop-color="#3E863D" offset="57%"></stop>
            <stop stop-color="#619857" offset="72%"></stop>
            <stop stop-color="#76AC64" offset="100%"></stop>
        </linearGradient>
        <path d="M8.16537623,0.00353725286 C8.03430752,0.0165692371 7.90620502,0.0575269017 7.78811341,0.124920877 L0,4.63901404 L8.39803708,20 C8.51483097,19.9832446 8.62977099,19.9441486 8.73358779,19.8838292 L16.5439477,15.3531668 C16.7849509,15.2127937 16.9499455,14.9752392 17,14.7060357 L8.43882225,0.0189894627 C8.37579062,0.00651599211 8.312759,0 8.2478735,0 C8.2219193,0 8.1959651,0.00130319842 8.17001091,0.00372342406" id="path-5"></path>
        <linearGradient x1="0.0337368978%" y1="50.0027925%" x2="100.0189%" y2="50.0027925%" id="linearGradient-7">
            <stop stop-color="#6BBF47" offset="16%"></stop>
            <stop stop-color="#79B461" offset="38%"></stop>
            <stop stop-color="#75AC64" offset="47%"></stop>
            <stop stop-color="#659E5A" offset="70%"></stop>
            <stop stop-color="#3E863D" offset="90%"></stop>
        </linearGradient>
        <path d="M8.04248425,0.126519572 L0.458325833,4.65089668 C0.174257426,4.82020964 0,5.13278741 0,5.47066909 L0,14.5257493 C0,14.863817 0.174257426,15.1762087 0.458325833,15.3455217 L8.0430243,19.8734339 C8.32655266,20.0421887 8.67614761,20.0421887 8.95931593,19.8734339 L16.5427543,15.3455217 C16.8253825,15.1762087 17,14.863631 17,14.5257493 L17,5.47066909 C17,5.13278741 16.8253825,4.82020964 16.5409541,4.65089668 L8.95859586,0.126519572 C8.81638164,0.0422352101 8.6579658,0 8.49954995,0 C8.34113411,0 8.18271827,0.0422352101 8.04050405,0.126519572" id="path-8"></path>
        <linearGradient x1="65.366538%" y1="15.9039155%" x2="34.5995385%" y2="83.9895613%" id="linearGradient-10">
            <stop stop-color="#3E863D" offset="30%"></stop>
            <stop stop-color="#55934F" offset="50%"></stop>
            <stop stop-color="#5AAD45" offset="80%"></stop>
        </linearGradient>
    </defs>
    <g id="Page-1" stroke="none" stroke-width="1" fill="none" fill-rule="evenodd">
        <g id="Skills-2" transform="translate(-1142.000000, -181.000000)">
            <g id="Group-13" filter="url(#filter-1)" transform="translate(1152.000000, 191.000000)">
                <circle id="Oval-Copy" cx="47" cy="47" r="47"></circle>
                <g id="Node.js_logo" transform="translate(5.000000, 20.000000)">
                    <path d="M42.0035363,52 C41.7317961,52 41.4619171,51.9262269 41.223679,51.7842667 L38.7413504,50.2633469 C38.3705925,50.0487693 38.5515045,49.9728774 38.6737876,49.9291529 C39.1681315,49.7500172 39.2684521,49.7095672 39.7961121,49.3994506 C39.8515769,49.3667053 39.924165,49.3782625 39.9809327,49.4129339 L41.8879537,50.5840576 C41.9568194,50.6225814 42.0545342,50.6225814 42.1183745,50.5840576 L49.5540068,46.1422629 C49.6228725,46.1018129 49.6675421,46.0189867 49.6675421,45.9342344 L49.6675421,37.0544974 C49.6675421,36.9658927 49.6228725,36.8869189 49.5525178,36.8426165 L42.1198635,32.4046742 C42.0509978,32.362298 41.9597973,32.362298 41.8909317,32.4046742 L34.4597663,36.8426165 C34.3877365,36.8849927 34.3419502,36.9678189 34.3419502,37.0525712 L34.3419502,45.9323082 C34.3419502,46.0170605 34.3866198,46.0979605 34.4573467,46.1384105 L36.4935374,47.3557627 C37.5991107,47.9278412 38.2747389,47.2536747 38.2747389,46.5756557 L38.2747389,37.8114902 C38.2747389,37.6862878 38.3696619,37.5899783 38.4906421,37.5899783 L39.4324268,37.5899783 C39.5496846,37.5899783 39.6464688,37.6862878 39.6464688,37.8114902 L39.6464688,46.5795081 C39.6464688,48.1050507 38.8424155,48.9814673 37.4446283,48.9814673 C37.0146831,48.9814673 36.6759384,48.9814673 35.7304312,48.4999197 L33.7798573,47.3365008 C33.2977975,47.0475723 33,46.508239 33,45.9323082 L33,37.0525712 C33,36.4747142 33.2977975,35.9353809 33.7798573,35.6503048 L41.2229345,31.2065839 C41.6938269,30.9311387 42.3192017,30.9311387 42.7863716,31.2065839 L50.2201427,35.6522309 C50.7003412,35.9392333 51,36.4766404 51,37.0544974 L51,45.9342344 C51,46.5101652 50.7003412,47.0475723 50.2201427,47.3365008 L42.7863716,51.7802217 C42.5481336,51.9227598 42.2782546,51.995955 42.0027919,51.995955" id="Path" fill="#689F63" fill-rule="nonzero"></path>
                    <path d="M43.0303315,45.9916146 C39.6985654,45.9916146 39,44.5600357 39,43.359322 C39,43.2451383 39.0983519,43.1541481 39.2205294,43.1541481 L40.2040484,43.1541481 C40.312693,43.1541481 40.4041831,43.2281891 40.4213375,43.3286351 C40.570009,44.2667261 41.0122114,44.7398751 43.0269006,44.7398751 C44.6317903,44.7398751 45.3141543,44.4005352 45.3141543,43.6039251 C45.3141543,43.1454059 45.1197377,42.8046387 42.6266313,42.5762712 C40.5414184,42.3835861 39.2529321,41.9536128 39.2529321,40.3925067 C39.2529321,38.9545049 40.5490425,38.0981267 42.7200274,38.0981267 C45.1578586,38.0981267 46.366291,38.8902765 46.5187745,40.5923283 C46.5244927,40.6512043 46.5016201,40.7082962 46.4596872,40.7511151 C46.4177542,40.7921499 46.3586668,40.8171276 46.2976734,40.8171276 L45.3084362,40.8171276 C45.2055097,40.8171276 45.1159256,40.749331 45.0949591,40.6565566 C44.8567036,39.6699376 44.2810781,39.3541481 42.7162154,39.3541481 C40.9645603,39.3541481 40.7606135,39.9250669 40.7606135,40.353256 C40.7606135,40.8724353 41.0007751,41.0240856 43.3642706,41.3166815 C45.7048935,41.6074933 46.8161175,42.0178412 46.8161175,43.5575379 C46.8161175,45.1097235 45.4323291,46 43.0192765,46 M52.29409,37.2774309 L52.5495,37.2774309 C52.7591649,37.2774309 52.7991918,37.1400535 52.7991918,37.0597681 C52.7991918,36.8492417 52.6448022,36.8492417 52.5590302,36.8492417 L52.295996,36.8492417 L52.29409,37.2774309 Z M51.9834047,36.603033 L52.5495,36.603033 C52.7439165,36.603033 53.1251255,36.603033 53.1251255,37.0098127 C53.1251255,37.293488 52.9307089,37.352364 52.8144402,37.3880464 C53.0412595,37.4023194 53.0565079,37.5414808 53.0870046,37.7377342 C53.1022529,37.8608385 53.1270315,38.073149 53.1727766,38.1445138 L52.8239704,38.1445138 C52.8144402,38.073149 52.7610709,37.6806423 52.7610709,37.6592328 C52.7381984,37.5718109 52.7057956,37.528992 52.5895269,37.528992 L52.3017142,37.528992 L52.3017142,38.1462979 L51.9834047,38.1462979 L51.9834047,36.603033 Z M51.3029467,37.3702052 C51.3029467,38.0089206 51.8537937,38.5263158 52.5304395,38.5263158 C53.2128035,38.5263158 53.7636505,37.9982159 53.7636505,37.3702052 C53.7636505,36.7297056 53.2051794,36.221231 52.5285335,36.221231 C51.8614178,36.221231 51.3010407,36.7225691 51.3010407,37.3684211 M54,37.3737734 C54,38.1302409 53.3386025,38.7475468 52.5323456,38.7475468 C51.7318068,38.7475468 51.0646912,38.1373773 51.0646912,37.3737734 C51.0646912,36.5958965 51.7470552,36 52.5323456,36 C53.3233541,36 53.998094,36.5976806 53.998094,37.3737734" id="Shape" fill="#689F63" fill-rule="nonzero"></path>
                    <path d="M18.0270452,17.0071211 C18.0270452,16.661531 17.8428555,16.3441141 17.5413161,16.1722582 L9.49849221,11.5950684 C9.36272351,11.5161838 9.21062459,11.4748632 9.05643692,11.4692286 L8.97326672,11.4692286 C8.81907905,11.4748632 8.66698013,11.5161838 8.52893279,11.5950684 L0.486488686,16.1722582 C0.186848114,16.3450532 0,16.6624701 0,17.0080602 L0.0176594254,29.336609 C0.0176594254,29.5075258 0.106905984,29.6671734 0.258815019,29.7516927 C0.406926329,29.8418466 0.593014897,29.8418466 0.741126207,29.7516927 L5.5224631,27.0433186 C5.8243823,26.8656402 6.00857201,26.5516041 6.00857201,26.2093948 L6.00857201,20.449874 C6.00857201,20.1061621 6.19276172,19.7887452 6.49373149,19.6178284 L8.52931257,18.4582236 C8.68046206,18.3718261 8.84642268,18.3290029 9.01542148,18.3290029 C9.18176187,18.3290029 9.35152022,18.3714504 9.49849221,18.4580357 L11.5331239,19.6172649 C11.8342835,19.7881817 12.0192328,20.1055987 12.0192328,20.4493105 L12.0192328,26.2084557 C12.0192328,26.5502893 12.205891,26.8658281 12.5062911,27.0423795 L17.2845898,29.7488754 C17.4346,29.8371511 17.6212582,29.8371511 17.7706987,29.7488754 C17.9180505,29.6643561 18.0114746,29.5047085 18.0114746,29.3337917 L18.0270452,17.0071211 Z M55.9792391,23.4260803 C55.9792391,23.5119143 55.9330967,23.5913625 55.8577119,23.63381 L53.0952461,25.2088741 C53.020241,25.2515094 52.9275765,25.2515094 52.8527613,25.2088741 L50.0899157,23.63381 C50.0139612,23.5911747 49.9683885,23.5117265 49.9683885,23.4260803 L49.9683885,20.2714443 C49.9683885,20.1854225 50.0139612,20.1061621 50.0880168,20.0629634 L52.8489635,18.4852697 C52.9249181,18.442071 53.0179623,18.442071 53.0939169,18.4852697 L55.8567624,20.0629634 C55.932717,20.1061621 55.9782897,20.1854225 55.9782897,20.2714443 L55.9792391,23.4260803 Z M56.7254922,0.0608132533 C56.5747225,-0.0222034831 56.3912924,-0.019949635 56.2424215,0.0658844114 C56.0943102,0.15228192 56.002785,0.310051283 56.002785,0.480968093 L56.002785,12.6893117 C56.002785,12.8095169 55.9382237,12.9203311 55.8330267,12.9804337 C55.7285892,13.0405363 55.5985171,13.0405363 55.4931302,12.9804337 L53.4784366,11.8326616 C53.1784163,11.6609935 52.8088975,11.6609935 52.5077379,11.8326616 L44.4622556,16.4254405 C44.1616656,16.5963573 43.9761467,16.9137742 43.9761467,17.2556078 L43.9761467,26.443795 C43.9761467,26.7875068 44.1616656,27.1030456 44.4622556,27.2758406 L52.5077379,31.8718124 C52.808138,32.0427292 53.1780365,32.0427292 53.479386,31.8718124 L61.5248683,27.2739624 C61.8248887,27.1011674 62.0109772,26.7856286 62.0109772,26.4419168 L62.0109772,3.54282066 C62.0109772,3.1942255 61.8191921,2.87361561 61.5115763,2.70326227 L56.7254922,0.0608132533 Z M83.5171192,20.1884276 C83.8160002,20.0167595 84,19.6997182 84,19.3578846 L84,17.1310827 C84,16.7884978 83.8158103,16.4723956 83.5163596,16.2999762 L75.5221466,11.7096391 C75.2202274,11.536844 74.8499491,11.536844 74.5480299,11.7096391 L66.5044465,16.3018545 C66.2025273,16.4746495 66.0183376,16.7901882 66.0183376,17.1339 L66.0183376,26.3183308 C66.0183376,26.6639208 66.206325,26.983216 66.5082442,27.1541328 L74.5005584,31.6599507 C74.7948821,31.8271111 75.1556661,31.8289893 75.4537876,31.6655853 L80.2882926,29.0079228 C80.4402016,28.9234035 80.5370437,28.7637559 80.5370437,28.5909609 C80.5370437,28.4181659 80.4439994,28.2566401 80.2920903,28.1721208 L72.1991365,23.5780272 C72.0472274,23.4935079 71.9541831,23.3338604 71.9541831,23.1629435 L71.9541831,20.2817745 C71.9541831,20.1097307 72.0453286,19.9512101 72.1972376,19.8655639 L74.7151299,18.4287357 C74.86514,18.3423382 75.0493297,18.3423382 75.1993399,18.4287357 L77.719131,19.8655639 C77.8691412,19.9500832 77.9621855,20.1097307 77.9621855,20.2806475 L77.9621855,22.5457648 C77.9621855,22.7166816 78.0552298,22.8763292 78.20524,22.9627267 C78.3552501,23.047246 78.5413387,23.047246 78.6913489,22.9608485 L83.5171192,20.1884276 Z" id="Shape" fill="#333333"></path>
                    <path d="M73.8930041,20.0256083 C73.9588477,19.9914639 74.0413717,19.9914639 74.1080933,20.0256083 L75.8924554,20.9303369 C75.959177,20.9642883 76,21.0267898 76,21.0943069 L76,22.9056931 C76,22.9732102 75.959177,23.0357117 75.8924554,23.0696631 L74.1080933,23.9743917 C74.0413717,24.0085361 73.9588477,24.0085361 73.8930041,23.9743917 L72.1097394,23.0696631 C72.041701,23.0357117 72,22.9732102 72,22.9056931 L72,21.0943069 C72,21.0267898 72.0395062,20.9642883 72.1075446,20.9303369 L73.8930041,20.0256083 Z" id="Path" fill="#689F63"></path>
                    <g id="Clipped" transform="translate(37.000000, 43.000000)">
                        <mask id="mask-3" fill="white">
                            <use xlink:href="#path-2"></use>
                        </mask>
                        <g id="Path"></g>
                        <g id="Group" mask="url(#mask-3)" fill="url(#linearGradient-4)" fill-rule="nonzero">
                            <g transform="translate(-23.946821, -38.749744)" id="Path">
                                <polygon points="0 15.2594443 15.4846894 36.3970062 35.9634568 21.137003 20.4778437 0"></polygon>
                            </g>
                        </g>
                    </g>
                    <g id="Clipped" transform="translate(38.000000, 43.000000)">
                        <mask id="mask-6" fill="white">
                            <use xlink:href="#path-5"></use>
                        </mask>
                        <g id="Path"></g>
                        <g id="Group" mask="url(#mask-6)" fill="url(#linearGradient-7)" fill-rule="nonzero">
                            <g transform="translate(-14.517110, -30.535056)" id="Path">
                                <polygon points="0 0 0 20.0003723 16.9968484 20.0003723 16.9968484 5.29130384e-15"></polygon>
                            </g>
                        </g>
                    </g>
                    <g id="Group" transform="translate(22.000000, 12.000000)">
                        <mask id="mask-9" fill="white">
                            <use xlink:href="#path-8"></use>
                        </mask>
                        <g id="Path"></g>
                        <polygon id="Path" fill="url(#linearGradient-10)" fill-rule="nonzero" mask="url(#mask-9)" points="24.608993 3.92618275 3.23815588 -6.90054358 -7.71953989 16.2030466 13.6507571 27.0303311"></polygon>
                    </g>
                </g>
            </g>
        </g>
    </g>
</svg>