<?xml version="1.0" encoding="UTF-8"?>
<svg width="112px" height="112px" viewBox="0 0 112 112" version="1.1" xmlns="http://www.w3.org/2000/svg" xmlns:xlink="http://www.w3.org/1999/xlink">
    <title>Group 8</title>
    <defs>
        <filter x="-12.8%" y="-12.8%" width="125.5%" height="125.5%" filterUnits="objectBoundingBox" id="filter-1">
            <feOffset dx="2" dy="0" in="SourceAlpha" result="shadowOffsetOuter1"></feOffset>
            <feGaussianBlur stdDeviation="2" in="shadowOffsetOuter1" result="shadowBlurOuter1"></feGaussianBlur>
            <feColorMatrix values="0 0 0 0 0   0 0 0 0 0   0 0 0 0 0  0 0 0 0.5 0" type="matrix" in="shadowBlurOuter1" result="shadowMatrixOuter1"></feColorMatrix>
            <feMerge>
                <feMergeNode in="shadowMatrixOuter1"></feMergeNode>
                <feMergeNode in="SourceGraphic"></feMergeNode>
            </feMerge>
        </filter>
    </defs>
    <g id="Page-1" stroke="none" stroke-width="1" fill="none" fill-rule="evenodd">
        <g id="Skills-2" transform="translate(-1610.000000, -182.000000)">
            <g id="Group-8" filter="url(#filter-1)" transform="translate(1619.000000, 191.000000)">
                <circle id="Oval-Copy-5" cx="47" cy="47" r="47"></circle>
                <g id="PayPal" transform="translate(4.000000, 37.000000)" fill-rule="nonzero">
                    <path d="M32.0232499,5 L27.4709621,5 C27.1594443,5 26.8945209,5.23266832 26.8459295,5.5488235 L25.004779,17.5497184 C24.968169,17.7864926 25.1465596,18 25.380198,18 L27.553501,18 C27.8650189,18 28.1299422,17.7673317 28.1785337,17.4504922 L28.6750985,14.2136653 C28.7230243,13.8968258 28.9886133,13.6641575 29.2994655,13.6641575 L30.7405684,13.6641575 C33.7392607,13.6641575 35.4699155,12.172343 35.9218827,9.21608675 C36.1255675,7.92272464 35.930536,6.90651155 35.3414477,6.19482023 C34.694449,5.41332842 33.5468918,5 32.0232499,5 Z M32.5484371,9.38306048 C32.299489,11.0623783 31.0514207,11.0623783 29.8446218,11.0623783 L29.1576849,11.0623783 L29.6396057,7.92614623 C29.6682281,7.73658999 29.8279808,7.596989 30.0143591,7.596989 L30.3292051,7.596989 C31.1512661,7.596989 31.9267326,7.596989 32.3274458,8.07874928 C32.5664093,8.36616308 32.6396293,8.79317787 32.5484371,9.38306048 Z" id="Shape" fill="#253B80"></path>
                    <path d="M46.610615,8.23187533 L44.3672433,8.23187533 C44.1761286,8.23187533 44.0110438,8.38545509 43.9815888,8.59399232 L43.882264,9.28359557 L43.7253992,9.03365204 C43.2397349,8.25897764 42.1567515,8 41.0758231,8 C38.5968118,8 36.4794799,10.0635399 36.0671105,12.9582173 C35.8527058,14.4021682 36.1575304,15.7828804 36.9028093,16.7457653 C37.5864383,17.6311074 38.5646168,18 39.7284301,18 C41.7258872,18 42.8335305,16.5884213 42.8335305,16.5884213 L42.7335207,17.2735075 C42.6958457,17.5354965 42.8794255,17.7703832 43.1184901,17.7703832 L45.1392371,17.7703832 C45.4605017,17.7703832 45.7317613,17.5144169 45.7824512,17.1658511 L46.9948994,8.72724535 C47.0332593,8.46751487 46.8503646,8.23187533 46.610615,8.23187533 Z M43.4835946,13.0304901 C43.2671349,14.4390574 42.2499114,15.384627 40.9525233,15.384627 C40.3010893,15.384627 39.78049,15.1550102 39.4462105,14.7198675 C39.114671,14.2877362 38.9886312,13.6726643 39.094121,12.9875781 C39.2961958,11.5910562 40.3305442,10.6146202 41.6080673,10.6146202 C42.2451164,10.6146202 42.7629756,10.8472484 43.1041051,11.2861552 C43.4459196,11.7295792 43.5815494,12.3484153 43.4835946,13.0304901 Z" id="Shape" fill="#253B80"></path>
                    <path d="M58.6033711,10 L56.3164216,10 C56.0982198,10 55.8932213,10.1003333 55.7695272,10.2681986 L52.6153298,14.5683798 L51.2783226,10.4360638 C51.1942384,10.1775127 50.9364267,10 50.6445645,10 L48.3972248,10 C48.1241251,10 47.9344146,10.2469742 48.0212784,10.4849442 L50.5403279,17.3269017 L48.1720739,20.4211542 C47.985838,20.6649126 48.1734637,21 48.4952072,21 L50.779377,21 C50.996189,21 51.1991028,20.9022394 51.3221019,20.7375899 L58.9285891,10.57563 C59.1106555,10.3325148 58.9237247,10 58.6033711,10 Z" id="Path" fill="#253B80"></path>
                    <path d="M66.0235638,5 L61.4704075,5 C61.1595414,5 60.8946063,5.23266832 60.8460126,5.5488235 L59.0047801,17.5497184 C58.9681685,17.7864926 59.146567,18 59.3788845,18 L61.7153726,18 C61.9323798,18 62.1181006,17.8371322 62.1520496,17.615413 L62.6745975,14.2136653 C62.7225255,13.8968258 62.9881263,13.6641575 63.2989923,13.6641575 L64.7394938,13.6641575 C67.7389854,13.6641575 69.4690517,12.172343 69.9217046,9.21608675 C70.1260642,7.92272464 69.9296926,6.90651155 69.3405781,6.19482023 C68.6942163,5.41332842 67.5472736,5 66.0235638,5 Z M66.5487744,9.38306048 C66.3004809,11.0623783 65.0523569,11.0623783 63.8448386,11.0623783 L63.1585368,11.0623783 L63.6411447,7.92614623 C63.6697684,7.73658999 63.8281969,7.596989 64.0152491,7.596989 L64.3301092,7.596989 C65.1515412,7.596989 65.9277079,7.596989 66.3284389,8.07874928 C66.567413,8.36616308 66.6399706,8.79317787 66.5487744,9.38306048 Z" id="Shape" fill="#179BD7"></path>
                    <path d="M80.6082026,8.23187533 L78.3660912,8.23187533 C78.1735971,8.23187533 78.0098743,8.38545509 77.9811029,8.59399232 L77.8817732,9.28359557 L77.7242158,9.03365204 C77.2385277,8.25897764 76.1561763,8 75.075195,8 C72.5960624,8 70.479312,10.0635399 70.0669224,12.9582173 C69.8531922,14.4021682 70.1566616,15.7828804 70.901977,16.7457653 C71.5870095,17.6311074 72.5638659,18 73.7277361,18 C75.7252909,18 76.8329885,16.5884213 76.8329885,16.5884213 L76.7329737,17.2735075 C76.6952969,17.5354965 76.8788856,17.7703832 77.1193321,17.7703832 L79.1394929,17.7703832 C79.4594031,17.7703832 79.732046,17.5144169 79.7820534,17.1658511 L80.995246,8.72724535 C81.0322377,8.46751487 80.848649,8.23187533 80.6082026,8.23187533 Z M77.4810292,13.0304901 C77.265929,14.4390574 76.2472857,15.384627 74.9498341,15.384627 C74.2997382,15.384627 73.7777435,15.1550102 73.4434476,14.7198675 C73.1118919,14.2877362 72.987216,13.6726643 73.0913409,12.9875781 C73.2947956,11.5910562 74.3278246,10.6146202 75.6054102,10.6146202 C76.2424904,10.6146202 76.760375,10.8472484 77.1015212,11.2861552 C77.4447225,11.7295792 77.5803589,12.3484153 77.4810292,13.0304901 Z" id="Shape" fill="#179BD7"></path>
                    <path d="M82.980322,5.32982419 L81.0050532,17.5497421 C80.96635,17.7865038 81.15494,18 81.4005292,18 L83.3863534,18 C83.7163859,18 83.9964561,17.7673439 84.047122,17.4505211 L85.9949468,5.4509422 C86.03365,5.21418044 85.84506,5 85.5994708,5 L83.375798,5 C83.1794674,5.00068428 83.0105809,5.14027792 82.980322,5.32982419 Z" id="Path" fill="#179BD7"></path>
                    <path d="M5.22652643,21 L5.5827671,18.6381088 L4.7892291,18.6189122 L1,18.6189122 L3.63332009,1.1905439 C3.64149388,1.13793103 3.66805867,1.08887309 3.70688413,1.05403484 C3.7457096,1.01919659 3.79543344,1 3.84720072,1 L10.2363736,1 C12.3574701,1 13.8212582,1.46071809 14.5855068,2.37006754 C14.9437909,2.79665837 15.1719757,3.24244579 15.2823217,3.73302524 C15.398117,4.24777817 15.4001604,4.86277995 15.2870898,5.61286882 L15.278916,5.66761465 L15.278916,6.14824031 L15.6372001,6.36011376 C15.9389489,6.52719517 16.1787131,6.71845005 16.3626232,6.93743335 C16.6691401,7.3021685 16.8673543,7.76573054 16.9511355,8.31532172 C17.0376414,8.88055457 17.0090332,9.55314611 16.8673543,10.3146107 C16.7038786,11.1905439 16.439593,11.9534305 16.0826712,12.5776751 C15.7543576,13.1528617 15.3361324,13.6299325 14.8395752,13.9996445 C14.3654958,14.350871 13.802186,14.6174902 13.1653122,14.7881266 C12.5481916,14.9559189 11.8445652,15.0405261 11.072824,15.0405261 L10.5755856,15.0405261 C10.2200261,15.0405261 9.87468378,15.1741913 9.60358668,15.4137931 C9.33180843,15.6583718 9.15198523,15.9925347 9.0968122,16.3579808 L9.05934903,16.5705652 L8.42996782,20.7333807 L8.40135958,20.8862424 C8.39386695,20.9345894 8.38092513,20.9587629 8.36185297,20.9751155 C8.34482426,20.9900462 8.32030291,21 8.29646271,21 L5.22652643,21 Z" id="Path" fill="#253B80"></path>
                    <path d="M16.3046895,6 L16.3046895,6 L16.3046895,6 C16.2859151,6.11928032 16.2644585,6.24122612 16.2403199,6.36650378 C15.4108907,10.5986228 12.5732636,12.0606397 8.94912036,12.0606397 L7.10385816,12.0606397 C6.66064656,12.0606397 6.28716871,12.3804976 6.21810548,12.8149711 L6.21810548,12.8149711 L6.21810548,12.8149711 L5.27334732,18.7696579 L5.00581112,20.4575744 C4.96088649,20.742781 5.18215704,21 5.47182029,21 L8.74461274,21 C9.13217145,21 9.46139519,20.7201244 9.52241222,20.3402932 L9.55459702,20.1750333 L10.170802,16.2887606 L10.2103624,16.075522 C10.270709,15.6943581 10.6006032,15.4144825 10.9881619,15.4144825 L11.4776392,15.4144825 C14.6485131,15.4144825 17.1307662,14.1350511 17.8562654,10.4326966 C18.159339,8.88605064 18.0024381,7.59462461 17.2005,6.68636162 C16.9577729,6.41248334 16.6567109,6.185251 16.3046895,6 Z" id="Path" fill="#179BD7"></path>
                    <path d="M15.0537792,5.3175114 C14.9155754,5.27818003 14.7729841,5.24242424 14.6267367,5.21024403 C14.479758,5.17877894 14.3291232,5.15088943 14.1741009,5.12657549 C13.631523,5.0407616 13.0370272,5 12.4001197,5 L7.02406435,5 C6.89171043,5 6.76593765,5.02931975 6.65332713,5.08223831 C6.40543775,5.19880218 6.22116599,5.42835434 6.17656053,5.70939483 L5.03290567,12.7933315 L5,13 C5.07531742,12.5337445 5.4826165,12.190489 5.96596424,12.190489 L7.97832879,12.190489 C11.9306654,12.190489 15.0252609,10.6208099 15.9298012,6.0798248 C15.956857,5.94538303 15.9795254,5.81451685 16,5.68651113 C15.7711228,5.56780191 15.5232334,5.46625548 15.2563318,5.37972647 C15.1905205,5.358273 15.1225155,5.33753464 15.0537792,5.3175114 Z" id="Path" fill="#222D65"></path>
                    <path d="M6.63489346,5.45214312 C6.67699134,5.17383526 6.85090387,4.9465151 7.08485764,4.83179277 C7.19182765,4.77938874 7.30983972,4.75035408 7.43475309,4.75035408 L12.5085822,4.75035408 C13.1096847,4.75035408 13.6707596,4.79071934 14.1828354,4.87569884 C14.3291428,4.89977637 14.4713094,4.92739471 14.6100254,4.95855386 C14.7480512,4.99042117 14.8826263,5.0258293 15.0130607,5.06477823 C15.0779329,5.08460678 15.1421149,5.1051435 15.2049166,5.12568021 C15.4568138,5.21136787 15.6907675,5.31263511 15.9067779,5.42948192 C16.1607454,3.76742452 15.9047075,2.63578084 15.0289337,1.6110697 C14.0634431,0.482966828 12.3208671,0 10.09106,0 L3.61764903,0 C3.16216383,0 2.77362114,0.339918002 2.70322797,0.802348118 L0.00689357799,18.3399925 C-0.0462463628,18.6869922 0.214622437,19 0.555546213,19 L4.55208384,19 L5.55553155,12.4672009 L6.63489346,5.45214312 Z" id="Path" fill="#253B80"></path>
                </g>
            </g>
        </g>
    </g>
</svg>