<?xml version="1.0" encoding="UTF-8"?>
<svg width="112px" height="112px" viewBox="0 0 112 112" version="1.1" xmlns="http://www.w3.org/2000/svg" xmlns:xlink="http://www.w3.org/1999/xlink">
    <title>Group 7</title>
    <defs>
        <filter x="-12.8%" y="-12.8%" width="125.5%" height="125.5%" filterUnits="objectBoundingBox" id="filter-1">
            <feOffset dx="1" dy="-2" in="SourceAlpha" result="shadowOffsetOuter1"></feOffset>
            <feGaussianBlur stdDeviation="2" in="shadowOffsetOuter1" result="shadowBlurOuter1"></feGaussianBlur>
            <feColorMatrix values="0 0 0 0 0   0 0 0 0 0   0 0 0 0 0  0 0 0 0.5 0" type="matrix" in="shadowBlurOuter1" result="shadowMatrixOuter1"></feColorMatrix>
            <feMerge>
                <feMergeNode in="shadowMatrixOuter1"></feMergeNode>
                <feMergeNode in="SourceGraphic"></feMergeNode>
            </feMerge>
        </filter>
    </defs>
    <g id="Page-1" stroke="none" stroke-width="1" fill="none" fill-rule="evenodd">
        <g id="Skills-2" transform="translate(-1730.000000, -294.000000)">
            <g id="Group-7" filter="url(#filter-1)" transform="translate(1739.000000, 303.000000)">
                <circle id="Oval-Copy-7" cx="47" cy="47" r="47"></circle>
                <g id="Razorpay_logo" transform="translate(2.000000, 37.000000)" fill-rule="nonzero">
                    <path d="M20.3650589,7.58979608 C20.220739,8.12929798 19.9410287,8.52526799 19.5258796,8.77809301 C19.110248,9.03086967 18.527321,9.15752398 17.7754095,9.15752398 L15.386553,9.15752398 L16.225153,6.02230999 L18.6140095,6.02230999 C19.3653418,6.02230999 19.8811769,6.1487225 20.1614182,6.40149915 C20.4411285,6.65456597 20.5093788,7.05058435 20.3650589,7.58979608 M22.8389145,7.52223745 C23.1427103,6.38776497 23.0167804,5.51675667 22.4613176,4.9099863 C21.9057584,4.30321593 20.9323471,4 19.5420975,4 L14.209501,4 L11,16 L13.5907596,16 L14.8847637,11.1628113 L16.5837807,11.1628113 C16.9647563,11.1628113 17.2646425,11.2247119 17.4839701,11.3483195 C17.7037805,11.4721689 17.8324617,11.6913355 17.8721859,12.0055291 L18.3342992,16 L21.110213,16 L20.659877,12.2754252 C20.5681204,11.4438785 20.1883032,10.955106 19.5208598,10.8091078 C20.3717681,10.5621826 21.0844864,10.151608 21.6584838,9.57849601 C22.2319503,9.00567422 22.6257651,8.32041589 22.8389145,7.52223745" id="Fill-1" fill="#072654"></path>
                    <path d="M30.474567,11.0190744 C30.2650146,11.9279628 29.9422057,12.622685 29.5062807,13.1023172 C29.0698416,13.5822755 28.5477595,13.8219829 27.9401743,13.8219829 C27.3206281,13.8219829 26.9004019,13.5854274 26.6788884,13.1117729 C26.4563003,12.6384445 26.4487312,11.9537758 26.6556204,11.0568429 C26.8619489,10.1605621 27.1912055,9.45986219 27.6444648,8.95436266 C28.0971634,8.44984132 28.6273754,8.19698287 29.2354745,8.19698287 C29.8431064,8.19698287 30.2546888,8.44043996 30.4680257,8.92637597 C30.6814562,9.41231197 30.6841194,10.10986 30.474567,11.0190744 L30.474567,11.0190744 Z M31.5738644,6.24628293 L31.2597928,7.6099687 C31.123829,7.11740283 30.8611993,6.7262412 30.472371,6.43588601 C30.0830287,6.14553082 29.6005208,6 29.0253614,6 C28.3197515,6 27.6411942,6.21166638 26.9902968,6.63461873 C26.3393528,7.0578428 25.7701739,7.65436701 25.2833675,8.4243544 C24.7965144,9.19466785 24.4396446,10.0720916 24.2127112,11.0568429 C23.9858246,12.0419746 23.9403165,12.9099426 24.0767942,13.6610186 C24.2132719,14.412475 24.5089347,14.9900335 24.9643433,15.3940744 C25.4192846,15.7984414 26.005237,16 26.7216866,16 C27.2967994,16 27.8448595,15.8611534 28.3647457,15.5833514 C28.8845852,15.3059299 29.3259301,14.9204743 29.6892944,14.4281802 L29.3617199,15.8485458 L31.787762,15.8485458 L34,6.24628293 L31.5738644,6.24628293 Z" id="Fill-3" fill="#072654"></path>
                    <polygon id="Fill-5" fill="#072654" points="44 6 36.4416753 6 35.9133719 8.22895691 40.3119434 8.22895691 34.4963488 13.9091326 34 16 41.8027427 16 42.3315469 13.7713826 37.6189885 13.7713826 43.522834 8.01180552"></polygon>
                    <path d="M48.0854821,11.000163 C47.8445532,11.9468198 47.4876215,12.6544757 47.0153575,13.1215546 C46.5430935,13.5885793 45.9715385,13.8219285 45.3007957,13.8219285 C43.8982397,13.8219285 43.4367043,12.8818472 43.9150031,11.000163 C44.1529404,10.0657334 44.5116258,9.36188158 44.991111,8.88855317 C45.471112,8.4148987 46.0522608,8.17807147 46.735589,8.17807147 C47.4063318,8.17807147 47.8588924,8.4148987 48.0920843,8.88855317 C48.3251731,9.36188158 48.3234194,10.0657334 48.0854821,11.000163 M49.6524227,6.60592557 C49.0360449,6.20215633 48.2486804,6 47.2897616,6 C46.3188764,6 45.4197385,6.20215633 44.5917807,6.60592557 C43.7637713,7.01029258 43.0588828,7.5910573 42.4772182,8.34843709 C41.894883,9.10614294 41.4752303,9.98987045 41.218157,11.000163 C40.9610836,12.0104556 40.9312189,12.8938571 41.1285114,13.6515629 C41.3251849,14.4092688 41.734109,14.9900335 42.3570374,15.3940744 C42.9793984,15.7984414 43.7756863,16 44.7466231,16 C45.7054902,16 46.5956532,15.7984414 47.4177309,15.3940744 C48.2385192,14.9900335 48.9409835,14.4092688 49.5232671,13.6515629 C50.1049317,12.8938571 50.5246359,12.0104556 50.7817093,11.000163 C51.0387827,9.98987045 51.0686989,9.10614294 50.8719738,8.34843709 C50.6746814,7.5910573 50.2681299,7.01029258 49.6524227,6.60592557" id="Fill-7" fill="#072654"></path>
                    <path d="M75.4744873,11.0190744 C75.2649302,11.9279628 74.9421141,12.622685 74.5061792,13.1023172 C74.0701975,13.5822755 73.5470756,13.8219829 72.9394768,13.8219829 C72.3210379,13.8219829 71.9002416,13.5854274 71.6787231,13.1117729 C71.4561299,12.6384445 71.4485607,11.9537758 71.6554545,11.0568429 C71.8617877,10.1605621 72.1910517,9.45986219 72.6443213,8.95436266 C73.0970301,8.44984132 73.627254,8.19698287 74.2353669,8.19698287 C74.8430125,8.19698287 75.2546042,8.44043996 75.467946,8.92637597 C75.6813812,9.41231197 75.6840445,10.10986 75.4744873,11.0190744 L75.4744873,11.0190744 Z M76.5738096,6.24628293 L76.2597309,7.6099687 C76.123764,7.11740283 75.8611284,6.7262412 75.4722913,6.43588601 C75.0829402,6.14553082 74.6004215,6 74.0252491,6 C73.3196232,6 72.6410506,6.21166638 71.9901385,6.63461873 C71.3391798,7.0578428 70.769988,7.65436701 70.2831707,8.4243544 C69.7963066,9.19466785 69.439382,10.0720916 69.2124902,11.0568429 C68.9855985,12.0419746 68.9406033,12.9099426 69.0765701,13.6610186 C69.2130042,14.412475 69.5082064,14.9900335 69.9641392,15.3940744 C70.4190908,15.7984414 71.0050565,16 71.7215223,16 C72.2966012,16 72.8447205,15.8611534 73.3645717,15.5833514 C73.8844696,15.3059299 74.3258245,14.9204743 74.6891971,14.4281802 L74.3616151,15.8485458 L76.7877121,15.8485458 L79,6.24628293 L76.5738096,6.24628293 Z" id="Fill-9" fill="#072654"></path>
                    <path d="M58.3740882,8.85178019 L59,6.19283503 C58.7873432,6.06435206 58.5055978,6 58.1542908,6 C57.59359,6 57.0536962,6.16369969 56.533569,6.49143078 C56.086881,6.77261168 55.7064915,7.16729323 55.3853074,7.66181999 L55.7108894,6.22993145 L54.9999527,6.23131358 L53.2561859,6.23131358 L51,16 L53.4894133,16 L54.6596167,10.8942946 C54.8300921,10.1493808 55.1359074,9.56816674 55.5782449,9.15070765 C56.0194474,8.73324856 56.5702649,8.52432552 57.229657,8.52432552 C57.6362916,8.52432552 58.0172485,8.63356922 58.3740882,8.85178019" id="Fill-11" fill="#072654"></path>
                    <path d="M66.3158793,11.3530719 C66.1081793,12.1252266 65.7863569,12.7146466 65.3503183,13.1221272 C64.9132477,13.5298885 64.3901984,13.7334885 63.7802322,13.7334885 C63.1697031,13.7334885 62.7538341,13.5271751 62.5325313,13.113987 C62.3107126,12.7010795 62.3052715,12.1032386 62.5156452,11.3205109 C62.7260657,10.53783 63.0533292,9.93727559 63.4980923,9.5189413 C63.9427616,9.10060701 64.4706892,8.89101882 65.0812183,8.89101882 C65.6803023,8.89101882 66.0875406,9.10874727 66.3033554,9.54336207 C66.5186541,9.97821078 66.5230164,10.5817125 66.3158793,11.3530719 M68.0414589,7.54600531 C67.5831869,7.18189261 66.9998163,7 66.2919572,7 C65.6705459,7 65.0790606,7.14123811 64.5190493,7.42376113 C63.9574901,7.70679875 63.5024546,8.0920574 63.1533798,8.5814084 L63.16126,8.52718682 L63.5760971,7.21057064 L63.0987342,7.21057064 L63.0987342,7.21174021 L61.165736,7.21174021 L60.5519704,9.497655 C60.5448876,9.52422779 60.5389305,9.54902282 60.5318008,9.57587631 L58,19 L60.468806,19 L61.7436654,14.2556812 C61.86867,14.6791616 62.1285765,15.010994 62.522212,15.2498684 C62.9158006,15.4889767 63.4012782,15.6085543 63.9792076,15.6085543 C64.6985119,15.6085543 65.382402,15.4350358 66.0320508,15.086923 C66.6812305,14.7393247 67.2455102,14.2418334 67.7239988,13.5949638 C68.2029095,12.9486088 68.5563466,12.2011088 68.7841224,11.3530719 C69.011945,10.5052689 69.0591794,9.74995614 68.927092,9.086806 C68.7950046,8.42388978 68.499215,7.91039871 68.0414589,7.54600531" id="Fill-13" fill="#072654"></path>
                    <path d="M88.9983929,7.00233355 L89,7 L87.4930795,7 C87.4449128,7 87.4024184,7.00138108 87.3583642,7.00233355 L86.5762592,7.00233355 L86.1763202,7.56371812 C86.1442721,7.60600769 86.1122241,7.64858301 86.077718,7.69796847 L86.0341365,7.7629744 L82.8557064,12.22281 L82.1966414,7 L79.5931856,7 L80.9115993,14.9363434 L78,19 L78.0830035,19 L79.5695986,19 L80.5938602,19 L81.2994848,17.9929557 C81.3202829,17.962953 81.3381032,17.9383793 81.3603194,17.9066621 L82.183737,16.7305071 L82.207324,16.6968374 L85.8916691,11.4347381 L88.9958876,7.00581005 L89,7.00233355 L88.9983929,7.00233355 Z" id="Fill-15" fill="#072654"></path>
                    <polygon id="Fill-17" fill="#3395FF" points="5.88433389 5.18073009 5 8.03597182 10.0601679 5.16467695 6.75098783 15.9972916 10.1114678 16 15 0"></polygon>
                    <path d="M1.14663058,11.0845395 L0,16 L5.67722536,16 C5.67722536,16 7.99935237,6.00287025 8,6 C7.99782581,6.00159458 1.14663058,11.0845395 1.14663058,11.0845395" id="Fill-19" fill="#072654"></path>
                </g>
            </g>
        </g>
    </g>
</svg>