<?xml version="1.0" encoding="UTF-8"?>
<svg width="101px" height="97px" viewBox="0 0 101 97" version="1.1" xmlns="http://www.w3.org/2000/svg" xmlns:xlink="http://www.w3.org/1999/xlink">
    <title>redux</title>
    <defs>
        <filter x="-17.0%" y="-17.0%" width="134.0%" height="134.0%" filterUnits="objectBoundingBox" id="filter-1">
            <feOffset dx="-3" dy="4" in="SourceAlpha" result="shadowOffsetOuter1"></feOffset>
            <feGaussianBlur stdDeviation="2" in="shadowOffsetOuter1" result="shadowBlurOuter1"></feGaussianBlur>
            <feColorMatrix values="0 0 0 0 0   0 0 0 0 0   0 0 0 0 0  0 0 0 0.5 0" type="matrix" in="shadowBlurOuter1" result="shadowMatrixOuter1"></feColorMatrix>
            <feMerge>
                <feMergeNode in="shadowMatrixOuter1"></feMergeNode>
                <feMergeNode in="SourceGraphic"></feMergeNode>
            </feMerge>
        </filter>
    </defs>
    <g id="Page-1" stroke="none" stroke-width="1" fill="none" fill-rule="evenodd">
        <g id="Skills-2" transform="translate(-976.000000, -675.000000)" fill="#764ABC" fill-rule="nonzero">
            <g id="Group-18" filter="url(#filter-1)" transform="translate(979.000000, 681.000000)">
                <g id="redux" transform="translate(9.000000, 6.000000)">
                    <path d="M53.3528717,50.9826156 C56.194352,50.6888542 58.3500511,48.2426451 58.2519964,45.3068336 C58.1542425,42.3713225 55.7043794,40.0227334 52.7648444,40.0227334 L52.5690358,40.0227334 C49.5311454,40.1206539 47.1796378,42.6647835 47.2776925,45.6982151 C47.3757471,47.1661208 47.9634737,48.4381856 48.8453642,49.318869 C45.5139113,55.8753343 40.4186773,60.6701326 32.7758263,64.6821679 C27.5825376,67.4221385 22.1934403,68.4007423 16.804343,67.7158998 C12.3948902,67.1286775 8.96538258,65.1717702 6.80938273,61.9421974 C3.67403919,57.1473991 3.38017593,51.960919 6.02584763,46.7747393 C7.88768344,43.056165 10.8269176,40.3161944 12.6887534,38.9462092 C12.2968355,37.6741444 11.7088082,35.5213962 11.4149449,33.9558704 C-2.79305802,44.2306097 -1.32314015,58.1260029 2.98825799,64.6821679 C6.22165621,69.575187 12.7868081,72.6086185 20.0377412,72.6086185 C21.9973309,72.6086185 23.9569206,72.4127776 25.9168111,71.9237761 C38.4590876,69.4772666 47.9637744,62.0401178 53.3528717,50.9826156 Z M70.5984643,38.8485891 C63.1514218,30.1393756 52.1771179,25.3445773 39.6348414,25.3445773 L38.0671696,25.3445773 C37.1852791,23.5832106 35.3234433,22.4087659 33.2657989,22.4087659 L33.0696895,22.4087659 C30.0324007,22.5066863 27.680893,25.0508159 27.7786469,28.0845478 C27.8767016,31.0200589 30.3262639,33.368648 33.2657989,33.368648 L33.4616075,33.368648 C35.6173065,33.2707276 37.4791423,31.9007423 38.2629782,30.0414551 L40.0267594,30.0414551 C47.4738018,30.0414551 54.5286256,32.1942033 60.8979689,36.4020795 C65.7970935,39.631352 69.3246558,43.8392283 71.2842455,48.9274875 C72.9499719,53.0374433 72.8519173,57.0494787 71.0881361,60.474592 C68.3447105,65.6607717 63.7394491,68.4986627 57.6642699,68.4986627 C53.7447897,68.4986627 50.0214188,67.324218 48.0615283,66.4435346 C46.9838292,67.4221385 45.0239387,68.9876643 43.6520755,69.9665685 C47.8657198,71.9234757 52.1771179,73 56.2924067,73 C65.6990389,73 72.6561087,67.8135199 75.3017804,62.6273402 C78.1432607,56.9515582 77.9471513,47.1661208 70.5984643,38.8485891 L70.5984643,38.8485891 Z M20.8215771,52.6457615 C20.9196318,55.5815729 23.3691941,57.9298617 26.308729,57.9298617 L26.5048384,57.9298617 C29.542428,57.8322416 31.8939357,55.2878116 31.795881,52.25438 C31.6981271,49.3185686 29.248264,46.9702799 26.308729,46.9702799 L26.1129205,46.9702799 C25.9168111,46.9702799 25.6226471,46.9702799 25.4271393,47.0679 C21.4096044,40.4138145 19.7438779,33.1728071 20.3319052,25.3442769 C20.7235224,19.4729544 22.6834129,14.3843948 26.1129205,10.1765185 C28.9544007,6.55586461 34.4415527,4.79449789 38.1652243,4.6968778 C48.551501,4.50103689 52.960653,17.4178263 53.254817,22.6043064 C54.5286256,22.8977674 56.6843246,23.5829102 58.1542425,24.0722121 C56.9781879,8.21991162 47.1796378,0 37.7733064,0 C28.9544007,0 20.8215771,6.36062444 17.5878781,15.7546804 C13.0806714,28.2800884 16.0202063,40.3161944 21.5073583,49.8081709 C21.0176864,50.4930133 20.7235224,51.5695376 20.8215771,52.6460619 L20.8215771,52.6457615 Z" id="Shape"></path>
                </g>
            </g>
        </g>
    </g>
</svg>