<?xml version="1.0" encoding="UTF-8"?>
<svg width="118px" height="118px" viewBox="0 0 118 118" version="1.1" xmlns="http://www.w3.org/2000/svg" xmlns:xlink="http://www.w3.org/1999/xlink">
    <title>Group 4</title>
    <defs>
        <filter x="-17.0%" y="-17.0%" width="134.0%" height="134.0%" filterUnits="objectBoundingBox" id="filter-1">
            <feOffset dx="4" dy="3" in="SourceAlpha" result="shadowOffsetOuter1"></feOffset>
            <feGaussianBlur stdDeviation="2" in="shadowOffsetOuter1" result="shadowBlurOuter1"></feGaussianBlur>
            <feColorMatrix values="0 0 0 0 0   0 0 0 0 0   0 0 0 0 0  0 0 0 0.5 0" type="matrix" in="shadowBlurOuter1" result="shadowMatrixOuter1"></feColorMatrix>
            <feMerge>
                <feMergeNode in="shadowMatrixOuter1"></feMergeNode>
                <feMergeNode in="SourceGraphic"></feMergeNode>
            </feMerge>
        </filter>
    </defs>
    <g id="Page-1" stroke="none" stroke-width="1" fill="none" fill-rule="evenodd">
        <g id="Skills-2" transform="translate(-1661.000000, -643.000000)">
            <g id="Group-4" filter="url(#filter-1)" transform="translate(1673.000000, 655.000000)">
                <circle id="Oval-Copy-16" cx="47" cy="47" r="47"></circle>
                <g id="git-scm-icon-(1)" transform="translate(5.000000, 5.000000)" fill="#F03C2E" fill-rule="nonzero">
                    <path d="M82.4139924,38.272466 L45.741769,1.58533808 C44.727635,0.570290173 43.351873,0 41.9173162,0 C40.4827595,0 39.1069975,0.570290173 38.0928635,1.58533808 L30.4807063,9.20058902 L40.1402713,18.8640799 C42.3871701,18.0762953 44.9595542,18.6146147 46.7497236,20.4055117 C48.4884635,22.1480829 49.0805772,24.7305847 48.2747799,27.0570395 L57.5852356,36.3712792 C59.8373842,35.5939984 62.4360172,36.0955546 64.2340612,37.8995813 C65.8601717,39.5268216 66.49499,41.898326 65.8993862,44.1207715 C65.3037824,46.343217 63.5682429,48.0789613 61.3465287,48.6741664 C59.1248144,49.2693715 56.7544567,48.6336115 55.1283463,47.006371 C53.2384314,45.115688 52.7712024,42.3321825 53.7266594,40.0029661 L45.0435504,31.3163281 L45.0435504,54.1752107 C45.6738646,54.4872703 46.2499376,54.898665 46.7497236,55.3936508 C48.375834,57.0204221 49.0109024,59.391493 48.4157047,61.6137039 C47.820507,63.8359148 46.0854678,65.5716591 43.8641597,66.1670988 C41.6428515,66.7625384 39.272744,66.1272119 37.6466336,64.5004406 C36.4380419,63.2935739 35.7588757,61.6553807 35.7588757,59.9470457 C35.7588757,58.2387107 36.4380419,56.6005175 37.6466336,55.3936508 C38.2687305,54.773927 38.9590744,54.3038822 39.7544136,53.9887683 L39.7544136,30.9171839 C38.9879481,30.6020701 38.2687305,30.1372772 37.6466336,29.5123014 C35.7979638,27.6651352 35.2501935,24.8826179 36.260696,22.4721332 L26.7323751,12.9451917 L1.58600757,38.0755198 C0.570568568,39.0901723 0,40.4670564 0,41.9028399 C0,43.3386234 0.570568568,44.7155075 1.58600757,45.73016 L38.2608559,82.4146619 C39.2749899,83.4297098 40.6507519,84 42.0853087,84 C43.5198654,84 44.8956274,83.4297098 45.9097614,82.4146619 L82.4139924,45.9533656 C83.4294314,44.9387131 84,43.5618291 84,42.1260455 C84,40.690262 83.4294314,39.3133779 82.4139924,38.2987254" id="Path"></path>
                </g>
            </g>
        </g>
    </g>
</svg>