<?xml version="1.0" encoding="UTF-8"?>
<svg width="118px" height="118px" viewBox="0 0 118 118" version="1.1" xmlns="http://www.w3.org/2000/svg" xmlns:xlink="http://www.w3.org/1999/xlink">
    <title>Group 6</title>
    <defs>
        <filter x="-17.0%" y="-17.0%" width="134.0%" height="134.0%" filterUnits="objectBoundingBox" id="filter-1">
            <feOffset dx="4" dy="-2" in="SourceAlpha" result="shadowOffsetOuter1"></feOffset>
            <feGaussianBlur stdDeviation="2" in="shadowOffsetOuter1" result="shadowBlurOuter1"></feGaussianBlur>
            <feColorMatrix values="0 0 0 0 0   0 0 0 0 0   0 0 0 0 0  0 0 0 0.5 0" type="matrix" in="shadowBlurOuter1" result="shadowMatrixOuter1"></feColorMatrix>
            <feMerge>
                <feMergeNode in="shadowMatrixOuter1"></feMergeNode>
                <feMergeNode in="SourceGraphic"></feMergeNode>
            </feMerge>
        </filter>
    </defs>
    <g id="Page-1" stroke="none" stroke-width="1" fill="none" fill-rule="evenodd">
        <g id="Skills-2" transform="translate(-1657.000000, -378.000000)">
            <g id="Group-6" filter="url(#filter-1)" transform="translate(1669.000000, 390.000000)">
                <circle id="Oval-Copy-23" cx="47" cy="47" r="47"></circle>
                <g id="WalletConnect-logo" transform="translate(2.000000, 19.000000)" fill="#3B99FC" fill-rule="nonzero">
                    <path d="M18.5086103,10.5568489 C33.1886264,-3.51894965 56.9971966,-3.51894965 71.6772127,10.5568489 L73.442531,12.2395777 C74.185823,12.9445046 74.185823,14.0814835 73.442531,14.7864104 L67.4032839,20.5850027 C67.031638,20.9260964 66.4509411,20.9260964 66.0792952,20.5850027 L63.6403684,18.2428262 C53.3968763,8.41932864 36.7889467,8.41932864 26.5454545,18.2428262 L23.9439327,20.7441798 C23.5722867,21.0852734 22.9915899,21.0852734 22.6199439,20.7441798 L16.557469,14.968327 C15.814177,14.2634001 15.814177,13.1264212 16.557469,12.4214943 L18.5086103,10.5568489 Z M84.0572608,22.5447284 L89.4428682,27.8631523 C90.1857106,28.5894569 90.1857106,29.7609159 89.4428682,30.4872204 L65.1844209,54.4552716 C64.4415785,55.1815761 63.2576735,55.1815761 62.5380449,54.4552716 C62.5380449,54.4552716 62.5380449,54.4552716 62.5380449,54.4552716 L45.3366005,37.4456869 C45.1508899,37.2582535 44.8491101,37.2582535 44.6633995,37.4456869 C44.6633995,37.4456869 44.6633995,37.4456869 44.6633995,37.4456869 L27.4619551,54.4552716 C26.7191127,55.1815761 25.5352076,55.1815761 24.8155791,54.4552716 C24.8155791,54.4552716 24.8155791,54.4552716 24.8155791,54.4552716 L0.557131803,30.4872204 C-0.185710601,29.7609159 -0.185710601,28.5894569 0.557131803,27.8631523 L5.94273923,22.5447284 C6.68558164,21.8184239 7.86948672,21.8184239 8.5891153,22.5447284 L25.7905597,39.5543131 C25.9762703,39.7417465 26.27805,39.7417465 26.4637606,39.5543131 C26.4637606,39.5543131 26.4637606,39.5543131 26.4637606,39.5543131 L43.6652051,22.5447284 C44.4080475,21.8184239 45.5919525,21.8184239 46.3115811,22.5447284 C46.3115811,22.5447284 46.3115811,22.5447284 46.3115811,22.5447284 L63.5130255,39.5543131 C63.6987361,39.7417465 64.0005159,39.7417465 64.1862265,39.5543131 L81.3876709,22.5447284 C82.1305133,21.8184239 83.3144184,21.8184239 84.0572608,22.5447284 Z" id="WalletConnect_00000073703063438220642730000002917717552236472496_"></path>
                </g>
            </g>
        </g>
    </g>
</svg>