<?xml version="1.0" encoding="UTF-8"?>
<svg width="99px" height="99px" viewBox="0 0 99 99" version="1.1" xmlns="http://www.w3.org/2000/svg" xmlns:xlink="http://www.w3.org/1999/xlink">
    <title>aws-lambda-1</title>
    <defs>
        <filter x="-21.3%" y="-21.3%" width="142.7%" height="142.7%" filterUnits="objectBoundingBox" id="filter-1">
            <feOffset dx="2" dy="4" in="SourceAlpha" result="shadowOffsetOuter1"></feOffset>
            <feGaussianBlur stdDeviation="2" in="shadowOffsetOuter1" result="shadowBlurOuter1"></feGaussianBlur>
            <feColorMatrix values="0 0 0 0 0   0 0 0 0 0   0 0 0 0 0  0 0 0 0.5 0" type="matrix" in="shadowBlurOuter1" result="shadowMatrixOuter1"></feColorMatrix>
            <feMerge>
                <feMergeNode in="shadowMatrixOuter1"></feMergeNode>
                <feMergeNode in="SourceGraphic"></feMergeNode>
            </feMerge>
        </filter>
    </defs>
    <g id="Page-1" stroke="none" stroke-width="1" fill="none" fill-rule="evenodd">
        <g id="Skills-2" transform="translate(-920.000000, -875.000000)" fill="#FA7E14" fill-rule="nonzero">
            <g id="aws-lambda-1" filter="url(#filter-1)" transform="translate(932.000000, 887.000000)">
                <path d="M37.4102656,39.4802532 C37.1249103,39.8717525 36.8844221,40.19396 36.6529074,40.519632 C32.9606365,45.7650304 29.2695621,51.0098514 25.5796841,56.254095 C22.1470447,61.1322463 18.710816,66.0075104 15.2709978,70.8798873 C15.1555534,71.0346265 14.9774488,71.1347517 14.7810481,71.1553227 C9.92462312,71.1149024 5.06939459,71.0640883 0.215362527,71.0028804 C0.161521895,71.0028804 0.105886576,70.9872898 0,70.9716991 C0.0392052592,70.8737539 0.0847608063,70.7782887 0.136396267,70.6858699 C3.52357023,65.6171659 6.9107442,60.5496167 10.2979182,55.4832224 C13.3022254,50.9931059 16.3083274,46.5041442 19.316224,42.0163375 C22.6495573,37.0296289 25.981096,32.0394557 29.3108399,27.0458179 C29.8025844,26.3095912 30.3140704,25.5872229 30.7806892,24.8371379 C30.9003396,24.6363505 30.936276,24.3991157 30.8811917,24.1736678 C29.9838478,21.4123847 29.0685571,18.6580308 28.155061,15.9036769 C27.7638191,14.723982 27.3546303,13.5512162 26.988514,12.3645921 C26.8700646,11.9834865 26.6744436,11.8674225 26.2706389,11.8691548 C23.2196698,11.8812809 20.1866475,11.8778163 17.1446518,11.8778163 C16.5667624,11.8778163 16.5649677,11.8778163 16.5649677,11.3269455 C16.5649677,7.71683645 16.5649677,4.10672735 16.5541996,0.496618253 C16.5541996,0.0947251097 16.6905958,0.00464561199 17.0818378,0.00464561199 C23.2065087,0.0150394002 29.3323762,0.0150394002 35.4594401,0.00464561199 C35.7537939,-0.0316865235 36.0303544,0.148502198 36.1055276,0.425594034 C39.3359655,8.26828466 42.5664034,16.1080881 45.7968413,23.9450044 C49.5656856,33.0846088 53.3345298,42.2253681 57.103374,51.3672823 C58.2735104,54.2047864 59.4526202,57.0405583 60.6101938,59.8849917 C60.7483848,60.2314513 60.8919598,60.2972786 61.2544867,60.1898761 C64.4651831,59.2319153 67.6830581,58.299939 70.8919598,57.3402459 C71.2957645,57.218985 71.4429289,57.300403 71.5685571,57.6867055 C72.6633166,61.0075208 73.7796123,64.3214069 74.8887294,67.6387577 C74.9264178,67.7530893 74.9551328,67.8691533 75,68.0285247 C74.77028,68.1099427 74.5549174,68.2017545 74.3341709,68.2606527 C67.0357741,70.4930074 59.741565,72.726517 52.4515434,74.9611815 C52.103374,75.0668516 51.9992821,74.95252 51.8826274,74.6701554 C49.6560182,69.2238104 47.4240249,63.7797751 45.1866475,58.3380495 C42.998325,53.0095008 40.8088059,47.680952 38.6180905,42.3524033 C38.2896626,41.5520816 37.9666188,40.7482953 37.638191,39.9479736 C37.586145,39.8111221 37.5143575,39.6915935 37.4102656,39.4802532 L37.4102656,39.4802532 Z" id="Path"></path>
            </g>
        </g>
    </g>
</svg>